solid tee_fold_Max_Build_Plate
facet normal 0.258819045102523 -0.965925826289068 6.74115558688699e-014
   outer loop
      vertex -0.499979409029897 -1189.75105482348 -19.0633739897819
      vertex -1.0305775098043 -1189.97083575299 -21.0633739897819
      vertex -0.499979409029858 -1189.75105482348 -21.0633739897819
   endloop
endfacet
facet normal 0.258819045102523 -0.965925826289068 6.74115558688699e-014
   outer loop
      vertex -1.0305775098043 -1189.97083575299 -21.0633739897819
      vertex -0.499979409029897 -1189.75105482348 -19.0633739897819
      vertex -1.03057750980434 -1189.97083575299 -19.0633739897819
   endloop
endfacet
facet normal 0.965925826289069 0.258819045102518 2.5736754585262e-015
   outer loop
      vertex -2.05561432764038 -1192.44549354054 -19.0633739897818
      vertex -2.13057750980437 -1191.87609164132 -21.0633739897818
      vertex -2.13057750980436 -1191.87609164132 -19.0633739897818
   endloop
endfacet
facet normal 0.965925826289069 0.258819045102518 2.5736754585262e-015
   outer loop
      vertex -2.13057750980437 -1191.87609164132 -21.0633739897818
      vertex -2.05561432764038 -1192.44549354054 -19.0633739897818
      vertex -2.05561432764034 -1192.44549354054 -21.0633739897818
   endloop
endfacet
facet normal 0.866025403784439 -0.499999999999998 4.94870316545107e-014
   outer loop
      vertex -1.83583339813015 -1190.77609164132 -19.0633739897819
      vertex -1.48621242841481 -1190.32045672271 -21.0633739897819
      vertex -1.4862124284148 -1190.32045672271 -19.0633739897819
   endloop
endfacet
facet normal 0.866025403784439 -0.499999999999998 4.94870316545107e-014
   outer loop
      vertex -1.48621242841481 -1190.32045672271 -21.0633739897819
      vertex -1.83583339813015 -1190.77609164132 -19.0633739897819
      vertex -1.83583339813011 -1190.77609164132 -21.0633739897819
   endloop
endfacet
facet normal 0.965925826289069 -0.25881904510252 3.5934646262615e-014
   outer loop
      vertex -2.05561432764033 -1191.30668974209 -19.0633739897818
      vertex -1.83583339813011 -1190.77609164132 -21.0633739897819
      vertex -1.83583339813015 -1190.77609164132 -19.0633739897819
   endloop
endfacet
facet normal 0.965925826289069 -0.25881904510252 3.5934646262615e-014
   outer loop
      vertex -1.83583339813011 -1190.77609164132 -21.0633739897819
      vertex -2.05561432764033 -1191.30668974209 -19.0633739897818
      vertex -2.05561432764034 -1191.30668974209 -21.0633739897818
   endloop
endfacet
facet normal 1.99266676210854e-014 -6.44484465794903e-014 -1.0
   outer loop
      vertex 7.31635575306622 -1191.87609164132 -21.0633739897816
      vertex 6.34545079537202 -1188.25262500988 -21.0633739897818
      vertex 7.87690799174856 -1189.78408220626 -21.0633739897817
   endloop
endfacet
facet normal 1.99266676210854e-014 -6.44484465794903e-014 -1.0
   outer loop
      vertex 6.34545079537202 -1188.25262500988 -21.0633739897818
      vertex 7.31635575306622 -1191.87609164132 -21.0633739897816
      vertex 6.34545079537202 -1195.49955827275 -21.0633739897814
   endloop
endfacet
facet normal 1.99266676210854e-014 -6.44484465794903e-014 -1.0
   outer loop
      vertex 6.34545079537202 -1188.25262500988 -21.0633739897818
      vertex 6.34545079537202 -1195.49955827275 -21.0633739897814
      vertex 5.78489855668972 -1197.59156770781 -21.0633739897813
   endloop
endfacet
facet normal 1.99266676210854e-014 -6.44484465794903e-014 -1.0
   outer loop
      vertex 6.34545079537202 -1188.25262500988 -21.0633739897818
      vertex 5.78489855668972 -1197.59156770781 -21.0633739897813
      vertex 5.78489855668972 -1186.16061557482 -21.063373989782
   endloop
endfacet
facet normal 1.99266676210854e-014 -6.44484465794903e-014 -1.0
   outer loop
      vertex 5.78489855668972 -1186.16061557482 -21.063373989782
      vertex 5.78489855668972 -1197.59156770781 -21.0633739897813
      vertex 3.69288912163088 -1198.15211994649 -21.0633739897813
   endloop
endfacet
facet normal 1.99266676210854e-014 -6.44484465794903e-014 -1.0
   outer loop
      vertex 5.78489855668972 -1186.16061557482 -21.063373989782
      vertex 3.69288912163088 -1198.15211994649 -21.0633739897813
      vertex 3.69288912163088 -1185.60006333614 -21.0633739897821
   endloop
endfacet
facet normal 1.99266676210854e-014 -6.44484465794903e-014 -1.0
   outer loop
      vertex 3.69288912163088 -1185.60006333614 -21.0633739897821
      vertex 3.69288912163088 -1198.15211994649 -21.0633739897813
      vertex 2.16143192525443 -1199.68357714287 -21.0633739897812
   endloop
endfacet
facet normal 1.99266676210854e-014 -6.44484465794903e-014 -1.0
   outer loop
      vertex 3.69288912163088 -1185.60006333614 -21.0633739897821
      vertex 2.16143192525443 -1199.68357714287 -21.0633739897812
      vertex 2.26942249019562 -1191.87609164132 -21.0633739897817
   endloop
endfacet
facet normal 1.99266676210854e-014 -6.44484465794903e-014 -1.0
   outer loop
      vertex 2.26942249019562 -1191.87609164132 -21.0633739897817
      vertex 2.16143192525443 -1199.68357714287 -21.0633739897812
      vertex 2.19445930803155 -1192.44549354054 -21.0633739897817
   endloop
endfacet
facet normal 1.99266676210854e-014 -6.44484465794903e-014 -1.0
   outer loop
      vertex 2.19445930803155 -1192.44549354054 -21.0633739897817
      vertex 2.16143192525443 -1199.68357714287 -21.0633739897812
      vertex 1.97467837852141 -1192.97609164132 -21.0633739897817
   endloop
endfacet
facet normal 1.99266676210854e-014 -6.44484465794903e-014 -1.0
   outer loop
      vertex 1.97467837852141 -1192.97609164132 -21.0633739897817
      vertex 2.16143192525443 -1199.68357714287 -21.0633739897812
      vertex 0.0694224901955818 -1199.12302490419 -21.0633739897813
   endloop
endfacet
facet normal 1.99266676210854e-014 -6.44484465794903e-014 -1.0
   outer loop
      vertex 1.97467837852141 -1192.97609164132 -21.0633739897817
      vertex 0.0694224901955818 -1199.12302490419 -21.0633739897813
      vertex 1.62505740880606 -1193.43172655993 -21.0633739897816
   endloop
endfacet
facet normal 1.99266676210854e-014 -6.44484465794903e-014 -1.0
   outer loop
      vertex 1.62505740880606 -1193.43172655993 -21.0633739897816
      vertex 0.0694224901955818 -1199.12302490419 -21.0633739897813
      vertex 1.16942249019565 -1193.78134752964 -21.0633739897816
   endloop
endfacet
facet normal 1.99266676210854e-014 -6.44484465794903e-014 -1.0
   outer loop
      vertex 1.16942249019565 -1193.78134752964 -21.0633739897816
      vertex 0.0694224901955818 -1199.12302490419 -21.0633739897813
      vertex 0.638824389421202 -1194.00112845915 -21.0633739897816
   endloop
endfacet
facet normal 1.99266676210854e-014 -6.44484465794903e-014 -1.0
   outer loop
      vertex 0.638824389421202 -1194.00112845915 -21.0633739897816
      vertex 0.0694224901955818 -1199.12302490419 -21.0633739897813
      vertex 0.069422490195627 -1194.07609164132 -21.0633739897816
   endloop
endfacet
facet normal 1.99266676210854e-014 -6.44484465794903e-014 -1.0
   outer loop
      vertex 0.069422490195627 -1194.07609164132 -21.0633739897816
      vertex 0.0694224901955818 -1199.12302490419 -21.0633739897813
      vertex -0.499979409029903 -1194.00112845915 -21.0633739897816
   endloop
endfacet
facet normal 1.99266676210854e-014 -6.44484465794903e-014 -1.0
   outer loop
      vertex -0.499979409029903 -1194.00112845915 -21.0633739897816
      vertex 0.0694224901955818 -1199.12302490419 -21.0633739897813
      vertex -2.02258694486317 -1199.68357714287 -21.0633739897813
   endloop
endfacet
facet normal 1.99266676210854e-014 -6.44484465794903e-014 -1.0
   outer loop
      vertex -0.499979409029903 -1194.00112845915 -21.0633739897816
      vertex -2.02258694486317 -1199.68357714287 -21.0633739897813
      vertex -1.03057750980435 -1193.78134752964 -21.0633739897817
   endloop
endfacet
facet normal 1.99266676210854e-014 -6.44484465794903e-014 -1.0
   outer loop
      vertex -1.03057750980435 -1193.78134752964 -21.0633739897817
      vertex -2.02258694486317 -1199.68357714287 -21.0633739897813
      vertex -1.48621242841476 -1193.43172655993 -21.0633739897817
   endloop
endfacet
facet normal 1.99266676210854e-014 -6.44484465794903e-014 -1.0
   outer loop
      vertex -1.48621242841476 -1193.43172655993 -21.0633739897817
      vertex -2.02258694486317 -1199.68357714287 -21.0633739897813
      vertex -1.83583339813011 -1192.97609164132 -21.0633739897817
   endloop
endfacet
facet normal 1.99266676210854e-014 -6.44484465794903e-014 -1.0
   outer loop
      vertex -1.83583339813011 -1192.97609164132 -21.0633739897817
      vertex -2.02258694486317 -1199.68357714287 -21.0633739897813
      vertex -2.05561432764034 -1192.44549354054 -21.0633739897818
   endloop
endfacet
facet normal 1.99266676210854e-014 -6.44484465794903e-014 -1.0
   outer loop
      vertex -2.05561432764034 -1192.44549354054 -21.0633739897818
      vertex -2.02258694486317 -1199.68357714287 -21.0633739897813
      vertex -3.55404414123971 -1198.15211994649 -21.0633739897814
   endloop
endfacet
facet normal 1.99266676210854e-014 -6.44484465794903e-014 -1.0
   outer loop
      vertex -2.05561432764034 -1192.44549354054 -21.0633739897818
      vertex -3.55404414123971 -1198.15211994649 -21.0633739897814
      vertex -2.13057750980437 -1191.87609164132 -21.0633739897818
   endloop
endfacet
facet normal 1.99266676210854e-014 -6.44484465794903e-014 -1.0
   outer loop
      vertex -7.73806301135726 -1193.96810107638 -21.0633739897818
      vertex -7.17751077267497 -1191.87609164132 -21.0633739897819
      vertex -6.20660581498077 -1195.49955827275 -21.0633739897816
   endloop
endfacet
facet normal 1.99266676210854e-014 -6.44484465794903e-014 -1.0
   outer loop
      vertex 2.26942249019562 -1191.87609164132 -21.0633739897817
      vertex 2.16143192525443 -1184.06860613977 -21.0633739897822
      vertex 3.69288912163088 -1185.60006333614 -21.0633739897821
   endloop
endfacet
facet normal 1.99266676210854e-014 -6.44484465794903e-014 -1.0
   outer loop
      vertex 2.16143192525443 -1184.06860613977 -21.0633739897822
      vertex 2.26942249019562 -1191.87609164132 -21.0633739897817
      vertex 2.19445930803155 -1191.30668974209 -21.0633739897818
   endloop
endfacet
facet normal 1.99266676210854e-014 -6.44484465794903e-014 -1.0
   outer loop
      vertex 2.16143192525443 -1184.06860613977 -21.0633739897822
      vertex 2.19445930803155 -1191.30668974209 -21.0633739897818
      vertex 1.97467837852141 -1190.77609164132 -21.0633739897818
   endloop
endfacet
facet normal 1.99266676210854e-014 -6.44484465794903e-014 -1.0
   outer loop
      vertex 2.16143192525443 -1184.06860613977 -21.0633739897822
      vertex 1.97467837852141 -1190.77609164132 -21.0633739897818
      vertex 0.069422490195627 -1184.62915837845 -21.0633739897822
   endloop
endfacet
facet normal 1.99266676210854e-014 -6.44484465794903e-014 -1.0
   outer loop
      vertex 0.069422490195627 -1184.62915837845 -21.0633739897822
      vertex 1.97467837852141 -1190.77609164132 -21.0633739897818
      vertex 1.62505740880606 -1190.32045672271 -21.0633739897818
   endloop
endfacet
facet normal 1.99266676210854e-014 -6.44484465794903e-014 -1.0
   outer loop
      vertex 0.069422490195627 -1184.62915837845 -21.0633739897822
      vertex 1.62505740880606 -1190.32045672271 -21.0633739897818
      vertex 1.16942249019569 -1189.97083575299 -21.0633739897819
   endloop
endfacet
facet normal 1.99266676210854e-014 -6.44484465794903e-014 -1.0
   outer loop
      vertex 0.069422490195627 -1184.62915837845 -21.0633739897822
      vertex 1.16942249019569 -1189.97083575299 -21.0633739897819
      vertex 0.638824389421202 -1189.75105482348 -21.0633739897819
   endloop
endfacet
facet normal 1.99266676210854e-014 -6.44484465794903e-014 -1.0
   outer loop
      vertex 0.069422490195627 -1184.62915837845 -21.0633739897822
      vertex 0.638824389421202 -1189.75105482348 -21.0633739897819
      vertex 0.069422490195627 -1189.67609164132 -21.0633739897819
   endloop
endfacet
facet normal 1.99266676210854e-014 -6.44484465794903e-014 -1.0
   outer loop
      vertex 0.069422490195627 -1184.62915837845 -21.0633739897822
      vertex 0.069422490195627 -1189.67609164132 -21.0633739897819
      vertex -0.499979409029858 -1189.75105482348 -21.0633739897819
   endloop
endfacet
facet normal 1.99266676210854e-014 -6.44484465794903e-014 -1.0
   outer loop
      vertex 0.069422490195627 -1184.62915837845 -21.0633739897822
      vertex -0.499979409029858 -1189.75105482348 -21.0633739897819
      vertex -2.02258694486317 -1184.06860613977 -21.0633739897823
   endloop
endfacet
facet normal 1.99266676210854e-014 -6.44484465794903e-014 -1.0
   outer loop
      vertex -2.02258694486317 -1184.06860613977 -21.0633739897823
      vertex -0.499979409029858 -1189.75105482348 -21.0633739897819
      vertex -1.0305775098043 -1189.97083575299 -21.0633739897819
   endloop
endfacet
facet normal 1.99266676210854e-014 -6.44484465794903e-014 -1.0
   outer loop
      vertex -2.02258694486317 -1184.06860613977 -21.0633739897823
      vertex -1.0305775098043 -1189.97083575299 -21.0633739897819
      vertex -1.48621242841481 -1190.32045672271 -21.0633739897819
   endloop
endfacet
facet normal 1.99266676210854e-014 -6.44484465794903e-014 -1.0
   outer loop
      vertex -2.02258694486317 -1184.06860613977 -21.0633739897823
      vertex -1.48621242841481 -1190.32045672271 -21.0633739897819
      vertex -1.83583339813011 -1190.77609164132 -21.0633739897819
   endloop
endfacet
facet normal 1.99266676210854e-014 -6.44484465794903e-014 -1.0
   outer loop
      vertex -2.02258694486317 -1184.06860613977 -21.0633739897823
      vertex -1.83583339813011 -1190.77609164132 -21.0633739897819
      vertex -2.05561432764034 -1191.30668974209 -21.0633739897818
   endloop
endfacet
facet normal 1.99266676210854e-014 -6.44484465794903e-014 -1.0
   outer loop
      vertex -2.02258694486317 -1184.06860613977 -21.0633739897823
      vertex -2.05561432764034 -1191.30668974209 -21.0633739897818
      vertex -3.55404414123971 -1185.60006333614 -21.0633739897822
   endloop
endfacet
facet normal 1.99266676210854e-014 -6.44484465794903e-014 -1.0
   outer loop
      vertex -3.55404414123971 -1185.60006333614 -21.0633739897822
      vertex -2.05561432764034 -1191.30668974209 -21.0633739897818
      vertex -2.13057750980437 -1191.87609164132 -21.0633739897818
   endloop
endfacet
facet normal 1.99266676210854e-014 -6.44484465794903e-014 -1.0
   outer loop
      vertex -3.55404414123971 -1185.60006333614 -21.0633739897822
      vertex -2.13057750980437 -1191.87609164132 -21.0633739897818
      vertex -3.55404414123971 -1198.15211994649 -21.0633739897814
   endloop
endfacet
facet normal 1.99266676210854e-014 -6.44484465794903e-014 -1.0
   outer loop
      vertex -3.55404414123971 -1185.60006333614 -21.0633739897822
      vertex -3.55404414123971 -1198.15211994649 -21.0633739897814
      vertex -5.64605357629847 -1197.59156770781 -21.0633739897815
   endloop
endfacet
facet normal 1.99266676210854e-014 -6.44484465794903e-014 -1.0
   outer loop
      vertex -3.55404414123971 -1185.60006333614 -21.0633739897822
      vertex -5.64605357629847 -1197.59156770781 -21.0633739897815
      vertex -5.64605357629842 -1186.16061557482 -21.0633739897822
   endloop
endfacet
facet normal 1.99266676210854e-014 -6.44484465794903e-014 -1.0
   outer loop
      vertex -5.64605357629842 -1186.16061557482 -21.0633739897822
      vertex -5.64605357629847 -1197.59156770781 -21.0633739897815
      vertex -6.20660581498072 -1188.25262500988 -21.0633739897821
   endloop
endfacet
facet normal 1.99266676210854e-014 -6.44484465794903e-014 -1.0
   outer loop
      vertex -6.20660581498072 -1188.25262500988 -21.0633739897821
      vertex -5.64605357629847 -1197.59156770781 -21.0633739897815
      vertex -6.20660581498077 -1195.49955827275 -21.0633739897816
   endloop
endfacet
facet normal 1.99266676210854e-014 -6.44484465794903e-014 -1.0
   outer loop
      vertex -6.20660581498072 -1188.25262500988 -21.0633739897821
      vertex -6.20660581498077 -1195.49955827275 -21.0633739897816
      vertex -7.17751077267497 -1191.87609164132 -21.0633739897819
   endloop
endfacet
facet normal 1.99266676210854e-014 -6.44484465794903e-014 -1.0
   outer loop
      vertex -6.20660581498072 -1188.25262500988 -21.0633739897821
      vertex -7.17751077267497 -1191.87609164132 -21.0633739897819
      vertex -7.73806301135726 -1189.78408220626 -21.063373989782
   endloop
endfacet
facet normal 1.99266676210854e-014 -6.44484465794903e-014 -1.0
   outer loop
      vertex 6.34545079537202 -1195.49955827275 -21.0633739897814
      vertex 7.31635575306622 -1191.87609164132 -21.0633739897816
      vertex 7.87690799174852 -1193.96810107638 -21.0633739897815
   endloop
endfacet
facet normal 0.707106781186547 0.707106781186548 -3.1476909606255e-014
   outer loop
      vertex -1.48621242841476 -1193.43172655993 -19.0633739897817
      vertex -1.03057750980435 -1193.78134752964 -21.0633739897817
      vertex -1.48621242841476 -1193.43172655993 -21.0633739897817
   endloop
endfacet
facet normal 0.707106781186547 0.707106781186548 -3.1476909606255e-014
   outer loop
      vertex -1.03057750980435 -1193.78134752964 -21.0633739897817
      vertex -1.48621242841476 -1193.43172655993 -19.0633739897817
      vertex -1.03057750980434 -1193.78134752964 -19.0633739897817
   endloop
endfacet
facet normal 1.0 -1.22082205570366e-015 1.99333741127328e-014
   outer loop
      vertex -2.13057750980436 -1191.87609164132 -19.0633739897818
      vertex -2.05561432764034 -1191.30668974209 -21.0633739897818
      vertex -2.05561432764033 -1191.30668974209 -19.0633739897818
   endloop
endfacet
facet normal 1.0 -1.22082205570366e-015 1.99333741127328e-014
   outer loop
      vertex -2.05561432764034 -1191.30668974209 -21.0633739897818
      vertex -2.13057750980436 -1191.87609164132 -19.0633739897818
      vertex -2.13057750980437 -1191.87609164132 -21.0633739897818
   endloop
endfacet
facet normal 0.499999999999997 -0.86602540378444 6.57806790286494e-014
   outer loop
      vertex -1.03057750980434 -1189.97083575299 -19.0633739897819
      vertex -1.48621242841481 -1190.32045672271 -21.0633739897819
      vertex -1.0305775098043 -1189.97083575299 -21.0633739897819
   endloop
endfacet
facet normal 0.499999999999997 -0.86602540378444 6.57806790286494e-014
   outer loop
      vertex -1.48621242841481 -1190.32045672271 -21.0633739897819
      vertex -1.03057750980434 -1189.97083575299 -19.0633739897819
      vertex -1.4862124284148 -1190.32045672271 -19.0633739897819
   endloop
endfacet
facet normal -1.99261488721512e-014 6.44484465794903e-014 1.0
   outer loop
      vertex 6.34545079537194 -1188.25262500988 -17.0633739897818
      vertex 7.31635575306618 -1191.87609164132 -17.0633739897816
      vertex 7.87690799174848 -1189.78408220626 -17.0633739897817
   endloop
endfacet
facet normal -1.99261488721512e-014 6.44484465794903e-014 1.0
   outer loop
      vertex 7.31635575306618 -1191.87609164132 -17.0633739897816
      vertex 6.34545079537194 -1188.25262500988 -17.0633739897818
      vertex 6.34545079537199 -1195.49955827275 -17.0633739897814
   endloop
endfacet
facet normal -1.99261488721512e-014 6.44484465794903e-014 1.0
   outer loop
      vertex 6.34545079537199 -1195.49955827275 -17.0633739897814
      vertex 6.34545079537194 -1188.25262500988 -17.0633739897818
      vertex 5.78489855668964 -1197.59156770781 -17.0633739897813
   endloop
endfacet
facet normal -1.99261488721512e-014 6.44484465794903e-014 1.0
   outer loop
      vertex 5.78489855668964 -1197.59156770781 -17.0633739897813
      vertex 6.34545079537194 -1188.25262500988 -17.0633739897818
      vertex 5.78489855668964 -1186.16061557482 -17.063373989782
   endloop
endfacet
facet normal -1.99261488721512e-014 6.44484465794903e-014 1.0
   outer loop
      vertex 5.78489855668964 -1197.59156770781 -17.0633739897813
      vertex 5.78489855668964 -1186.16061557482 -17.063373989782
      vertex 3.6928891216308 -1185.60006333614 -17.0633739897821
   endloop
endfacet
facet normal -1.99261488721512e-014 6.44484465794903e-014 1.0
   outer loop
      vertex 5.78489855668964 -1197.59156770781 -17.0633739897813
      vertex 3.6928891216308 -1185.60006333614 -17.0633739897821
      vertex 3.69288912163084 -1198.15211994649 -17.0633739897813
   endloop
endfacet
facet normal -1.99261488721512e-014 6.44484465794903e-014 1.0
   outer loop
      vertex 3.69288912163084 -1198.15211994649 -17.0633739897813
      vertex 3.6928891216308 -1185.60006333614 -17.0633739897821
      vertex 3.3456620594922 -1191.87609164132 -17.0633739897817
   endloop
endfacet
facet normal -1.99261488721512e-014 6.44484465794903e-014 1.0
   outer loop
      vertex 3.69288912163084 -1198.15211994649 -17.0633739897813
      vertex 3.3456620594922 -1191.87609164132 -17.0633739897817
      vertex 2.16143192525435 -1199.68357714287 -17.0633739897812
   endloop
endfacet
facet normal -1.99261488721512e-014 6.44484465794903e-014 1.0
   outer loop
      vertex 2.16143192525435 -1199.68357714287 -17.0633739897812
      vertex 3.3456620594922 -1191.87609164132 -17.0633739897817
      vertex 1.70754227484383 -1194.71339833721 -17.0633739897816
   endloop
endfacet
facet normal -1.99261488721512e-014 6.44484465794903e-014 1.0
   outer loop
      vertex 2.16143192525435 -1199.68357714287 -17.0633739897812
      vertex 1.70754227484383 -1194.71339833721 -17.0633739897816
      vertex 0.0694224901955015 -1199.12302490419 -17.0633739897813
   endloop
endfacet
facet normal -1.99261488721512e-014 6.44484465794903e-014 1.0
   outer loop
      vertex 0.0694224901955015 -1199.12302490419 -17.0633739897813
      vertex 1.70754227484383 -1194.71339833721 -17.0633739897816
      vertex -1.56869729445278 -1194.71339833721 -17.0633739897816
   endloop
endfacet
facet normal -1.99261488721512e-014 6.44484465794903e-014 1.0
   outer loop
      vertex 0.0694224901955015 -1199.12302490419 -17.0633739897813
      vertex -1.56869729445278 -1194.71339833721 -17.0633739897816
      vertex -2.02258694486325 -1199.68357714287 -17.0633739897813
   endloop
endfacet
facet normal -1.99261488721512e-014 6.44484465794903e-014 1.0
   outer loop
      vertex -2.02258694486325 -1199.68357714287 -17.0633739897813
      vertex -1.56869729445278 -1194.71339833721 -17.0633739897816
      vertex -3.20681707910101 -1191.87609164132 -17.0633739897818
   endloop
endfacet
facet normal -1.99261488721512e-014 6.44484465794903e-014 1.0
   outer loop
      vertex -2.02258694486325 -1199.68357714287 -17.0633739897813
      vertex -3.20681707910101 -1191.87609164132 -17.0633739897818
      vertex -3.55404414123975 -1198.15211994649 -17.0633739897814
   endloop
endfacet
facet normal -1.99261488721512e-014 6.44484465794903e-014 1.0
   outer loop
      vertex 6.34545079537199 -1195.49955827275 -17.0633739897814
      vertex 7.87690799174848 -1193.96810107638 -17.0633739897815
      vertex 7.31635575306618 -1191.87609164132 -17.0633739897816
   endloop
endfacet
facet normal -1.99261488721512e-014 6.44484465794903e-014 1.0
   outer loop
      vertex 2.16143192525435 -1184.06860613977 -17.0633739897822
      vertex 3.3456620594922 -1191.87609164132 -17.0633739897817
      vertex 3.6928891216308 -1185.60006333614 -17.0633739897821
   endloop
endfacet
facet normal -1.99261488721512e-014 6.44484465794903e-014 1.0
   outer loop
      vertex 3.3456620594922 -1191.87609164132 -17.0633739897817
      vertex 2.16143192525435 -1184.06860613977 -17.0633739897822
      vertex 1.70754227484387 -1189.03878494542 -17.0633739897819
   endloop
endfacet
facet normal -1.99261488721512e-014 6.44484465794903e-014 1.0
   outer loop
      vertex 1.70754227484387 -1189.03878494542 -17.0633739897819
      vertex 2.16143192525435 -1184.06860613977 -17.0633739897822
      vertex 0.0694224901955466 -1184.62915837845 -17.0633739897822
   endloop
endfacet
facet normal -1.99261488721512e-014 6.44484465794903e-014 1.0
   outer loop
      vertex 1.70754227484387 -1189.03878494542 -17.0633739897819
      vertex 0.0694224901955466 -1184.62915837845 -17.0633739897822
      vertex -1.56869729445273 -1189.03878494542 -17.063373989782
   endloop
endfacet
facet normal -1.99261488721512e-014 6.44484465794903e-014 1.0
   outer loop
      vertex -1.56869729445273 -1189.03878494542 -17.063373989782
      vertex 0.0694224901955466 -1184.62915837845 -17.0633739897822
      vertex -2.02258694486325 -1184.06860613977 -17.0633739897823
   endloop
endfacet
facet normal -1.99261488721512e-014 6.44484465794903e-014 1.0
   outer loop
      vertex -1.56869729445273 -1189.03878494542 -17.063373989782
      vertex -2.02258694486325 -1184.06860613977 -17.0633739897823
      vertex -3.20681707910101 -1191.87609164132 -17.0633739897818
   endloop
endfacet
facet normal -1.99261488721512e-014 6.44484465794903e-014 1.0
   outer loop
      vertex -3.20681707910101 -1191.87609164132 -17.0633739897818
      vertex -2.02258694486325 -1184.06860613977 -17.0633739897823
      vertex -3.55404414123979 -1185.60006333614 -17.0633739897823
   endloop
endfacet
facet normal -1.99261488721512e-014 6.44484465794903e-014 1.0
   outer loop
      vertex -3.20681707910101 -1191.87609164132 -17.0633739897818
      vertex -3.55404414123979 -1185.60006333614 -17.0633739897823
      vertex -3.55404414123975 -1198.15211994649 -17.0633739897814
   endloop
endfacet
facet normal -1.99261488721512e-014 6.44484465794903e-014 1.0
   outer loop
      vertex -3.55404414123975 -1198.15211994649 -17.0633739897814
      vertex -3.55404414123979 -1185.60006333614 -17.0633739897823
      vertex -5.64605357629855 -1197.59156770781 -17.0633739897815
   endloop
endfacet
facet normal -1.99261488721512e-014 6.44484465794903e-014 1.0
   outer loop
      vertex -5.64605357629855 -1197.59156770781 -17.0633739897815
      vertex -3.55404414123979 -1185.60006333614 -17.0633739897823
      vertex -5.6460535762985 -1186.16061557482 -17.0633739897822
   endloop
endfacet
facet normal -1.99261488721512e-014 6.44484465794903e-014 1.0
   outer loop
      vertex -5.64605357629855 -1197.59156770781 -17.0633739897815
      vertex -5.6460535762985 -1186.16061557482 -17.0633739897822
      vertex -6.2066058149808 -1188.25262500988 -17.0633739897821
   endloop
endfacet
facet normal -1.99261488721512e-014 6.44484465794903e-014 1.0
   outer loop
      vertex -5.64605357629855 -1197.59156770781 -17.0633739897815
      vertex -6.2066058149808 -1188.25262500988 -17.0633739897821
      vertex -6.20660581498085 -1195.49955827275 -17.0633739897816
   endloop
endfacet
facet normal -1.99261488721512e-014 6.44484465794903e-014 1.0
   outer loop
      vertex -6.20660581498085 -1195.49955827275 -17.0633739897816
      vertex -6.2066058149808 -1188.25262500988 -17.0633739897821
      vertex -7.17751077267504 -1191.87609164132 -17.0633739897819
   endloop
endfacet
facet normal -1.99261488721512e-014 6.44484465794903e-014 1.0
   outer loop
      vertex -7.17751077267504 -1191.87609164132 -17.0633739897819
      vertex -6.2066058149808 -1188.25262500988 -17.0633739897821
      vertex -7.73806301135734 -1189.78408220626 -17.063373989782
   endloop
endfacet
facet normal -1.99261488721512e-014 6.44484465794903e-014 1.0
   outer loop
      vertex -7.73806301135734 -1193.96810107638 -17.0633739897818
      vertex -6.20660581498085 -1195.49955827275 -17.0633739897816
      vertex -7.17751077267504 -1191.87609164132 -17.0633739897819
   endloop
endfacet
facet normal 0.707106781186547 0.707106781186548 -3.1476909606255e-014
   outer loop
      vertex -1.48621242841476 -1193.43172655993 -19.0633739897817
      vertex -1.83583339813011 -1192.97609164132 -21.0633739897817
      vertex -1.83583339813015 -1192.97609164132 -19.0633739897817
   endloop
endfacet
facet normal 0.707106781186547 0.707106781186548 -3.1476909606255e-014
   outer loop
      vertex -1.83583339813011 -1192.97609164132 -21.0633739897817
      vertex -1.48621242841476 -1193.43172655993 -19.0633739897817
      vertex -1.48621242841476 -1193.43172655993 -21.0633739897817
   endloop
endfacet
facet normal 0.866025403784438 0.500000000000001 -1.49614149249796e-014
   outer loop
      vertex -1.83583339813015 -1192.97609164132 -19.0633739897817
      vertex -2.05561432764034 -1192.44549354054 -21.0633739897818
      vertex -2.05561432764038 -1192.44549354054 -19.0633739897818
   endloop
endfacet
facet normal 0.866025403784438 0.500000000000001 -1.49614149249796e-014
   outer loop
      vertex -2.05561432764034 -1192.44549354054 -21.0633739897818
      vertex -1.83583339813015 -1192.97609164132 -19.0633739897817
      vertex -1.83583339813011 -1192.97609164132 -21.0633739897817
   endloop
endfacet
facet normal -0.866025403784437 -0.500000000000003 1.49614149249797e-014
   outer loop
      vertex 1.97467837852141 -1190.77609164132 -21.0633739897818
      vertex 1.62505740880602 -1190.32045672271 -19.0633739897818
      vertex 1.62505740880606 -1190.32045672271 -21.0633739897818
   endloop
endfacet
facet normal -0.866025403784437 -0.500000000000003 1.49614149249797e-014
   outer loop
      vertex 1.62505740880602 -1190.32045672271 -19.0633739897818
      vertex 1.97467837852141 -1190.77609164132 -21.0633739897818
      vertex 1.97467837852137 -1190.77609164132 -19.0633739897818
   endloop
endfacet
facet normal -0.965925826289067 -0.258819045102526 -2.57367545852568e-015
   outer loop
      vertex 2.19445930803155 -1191.30668974209 -21.0633739897818
      vertex 1.97467837852137 -1190.77609164132 -19.0633739897818
      vertex 1.97467837852141 -1190.77609164132 -21.0633739897818
   endloop
endfacet
facet normal -0.965925826289067 -0.258819045102526 -2.57367545852568e-015
   outer loop
      vertex 1.97467837852137 -1190.77609164132 -19.0633739897818
      vertex 2.19445930803155 -1191.30668974209 -21.0633739897818
      vertex 2.19445930803155 -1191.30668974209 -19.0633739897818
   endloop
endfacet
facet normal -0.258819045102525 -0.965925826289067 5.70932821618121e-014
   outer loop
      vertex 0.638824389421208 -1189.75105482348 -19.0633739897819
      vertex 0.069422490195627 -1189.67609164132 -21.0633739897819
      vertex 0.638824389421202 -1189.75105482348 -21.0633739897819
   endloop
endfacet
facet normal -0.258819045102525 -0.965925826289067 5.70932821618121e-014
   outer loop
      vertex 0.069422490195627 -1189.67609164132 -21.0633739897819
      vertex 0.638824389421208 -1189.75105482348 -19.0633739897819
      vertex 0.0694224901956326 -1189.67609164132 -19.0633739897819
   endloop
endfacet
facet normal -0.500000000000001 -0.866025403784438 4.58473049159165e-014
   outer loop
      vertex 1.16942249019565 -1189.97083575299 -19.0633739897819
      vertex 0.638824389421202 -1189.75105482348 -21.0633739897819
      vertex 1.16942249019569 -1189.97083575299 -21.0633739897819
   endloop
endfacet
facet normal -0.500000000000001 -0.866025403784438 4.58473049159165e-014
   outer loop
      vertex 0.638824389421202 -1189.75105482348 -21.0633739897819
      vertex 1.16942249019565 -1189.97083575299 -19.0633739897819
      vertex 0.638824389421208 -1189.75105482348 -19.0633739897819
   endloop
endfacet
facet normal -1.76439975933936e-015 -1.0 6.44484465794903e-014
   outer loop
      vertex 0.0694224901956326 -1189.67609164132 -19.0633739897819
      vertex -0.499979409029858 -1189.75105482348 -21.0633739897819
      vertex 0.069422490195627 -1189.67609164132 -21.0633739897819
   endloop
endfacet
facet normal -1.76439975933936e-015 -1.0 6.44484465794903e-014
   outer loop
      vertex -0.499979409029858 -1189.75105482348 -21.0633739897819
      vertex 0.0694224901956326 -1189.67609164132 -19.0633739897819
      vertex -0.499979409029897 -1189.75105482348 -19.0633739897819
   endloop
endfacet
facet normal -0.707106781186548 -0.707106781186547 3.14769096062548e-014
   outer loop
      vertex 1.62505740880602 -1190.32045672271 -19.0633739897818
      vertex 1.16942249019569 -1189.97083575299 -21.0633739897819
      vertex 1.62505740880606 -1190.32045672271 -21.0633739897818
   endloop
endfacet
facet normal -0.707106781186548 -0.707106781186547 3.14769096062548e-014
   outer loop
      vertex 1.16942249019569 -1189.97083575299 -21.0633739897819
      vertex 1.62505740880602 -1190.32045672271 -19.0633739897818
      vertex 1.16942249019565 -1189.97083575299 -19.0633739897819
   endloop
endfacet
facet normal -1.0 -1.27428871507747e-015 -1.99333741127327e-014
   outer loop
      vertex 2.26942249019562 -1191.87609164132 -21.0633739897817
      vertex 2.19445930803155 -1191.30668974209 -19.0633739897818
      vertex 2.19445930803155 -1191.30668974209 -21.0633739897818
   endloop
endfacet
facet normal -1.0 -1.27428871507747e-015 -1.99333741127327e-014
   outer loop
      vertex 2.19445930803155 -1191.30668974209 -19.0633739897818
      vertex 2.26942249019562 -1191.87609164132 -21.0633739897817
      vertex 2.26942249019563 -1191.87609164132 -19.0633739897817
   endloop
endfacet
facet normal -0.965925826289068 0.258819045102524 -3.59346462626152e-014
   outer loop
      vertex 2.19445930803155 -1192.44549354054 -21.0633739897817
      vertex 2.26942249019563 -1191.87609164132 -19.0633739897817
      vertex 2.26942249019562 -1191.87609164132 -21.0633739897817
   endloop
endfacet
facet normal -0.965925826289068 0.258819045102524 -3.59346462626152e-014
   outer loop
      vertex 2.26942249019563 -1191.87609164132 -19.0633739897817
      vertex 2.19445930803155 -1192.44549354054 -21.0633739897817
      vertex 2.19445930803151 -1192.44549354054 -19.0633739897817
   endloop
endfacet
facet normal -0.86602540378444 0.499999999999998 -4.94870316545107e-014
   outer loop
      vertex 1.97467837852141 -1192.97609164132 -21.0633739897817
      vertex 2.19445930803151 -1192.44549354054 -19.0633739897817
      vertex 2.19445930803155 -1192.44549354054 -21.0633739897817
   endloop
endfacet
facet normal -0.86602540378444 0.499999999999998 -4.94870316545107e-014
   outer loop
      vertex 2.19445930803151 -1192.44549354054 -19.0633739897817
      vertex 1.97467837852141 -1192.97609164132 -21.0633739897817
      vertex 1.97467837852137 -1192.97609164132 -19.0633739897817
   endloop
endfacet
facet normal -0.707106781186545 0.70710678118655 -5.96669576203383e-014
   outer loop
      vertex 1.62505740880606 -1193.43172655993 -21.0633739897816
      vertex 1.97467837852137 -1192.97609164132 -19.0633739897817
      vertex 1.97467837852141 -1192.97609164132 -21.0633739897817
   endloop
endfacet
facet normal -0.707106781186545 0.70710678118655 -5.96669576203383e-014
   outer loop
      vertex 1.97467837852137 -1192.97609164132 -19.0633739897817
      vertex 1.62505740880606 -1193.43172655993 -21.0633739897816
      vertex 1.62505740880607 -1193.43172655993 -19.0633739897816
   endloop
endfacet
facet normal -0.499999999999998 0.86602540378444 -6.57806790286494e-014
   outer loop
      vertex 1.16942249019565 -1193.78134752964 -19.0633739897816
      vertex 1.62505740880606 -1193.43172655993 -21.0633739897816
      vertex 1.16942249019565 -1193.78134752964 -21.0633739897816
   endloop
endfacet
facet normal -0.499999999999998 0.86602540378444 -6.57806790286494e-014
   outer loop
      vertex 1.62505740880606 -1193.43172655993 -21.0633739897816
      vertex 1.16942249019565 -1193.78134752964 -19.0633739897816
      vertex 1.62505740880607 -1193.43172655993 -19.0633739897816
   endloop
endfacet
facet normal -0.258819045102525 0.965925826289067 -6.74115558688699e-014
   outer loop
      vertex 0.638824389421208 -1194.00112845915 -19.0633739897816
      vertex 1.16942249019565 -1193.78134752964 -21.0633739897816
      vertex 0.638824389421202 -1194.00112845915 -21.0633739897816
   endloop
endfacet
facet normal -0.258819045102525 0.965925826289067 -6.74115558688699e-014
   outer loop
      vertex 1.16942249019565 -1193.78134752964 -21.0633739897816
      vertex 0.638824389421208 -1194.00112845915 -19.0633739897816
      vertex 1.16942249019565 -1193.78134752964 -19.0633739897816
   endloop
endfacet
facet normal -2.12975526505834e-015 1.0 -6.44484465794904e-014
   outer loop
      vertex 0.0694224901956326 -1194.07609164132 -19.0633739897816
      vertex 0.638824389421202 -1194.00112845915 -21.0633739897816
      vertex 0.069422490195627 -1194.07609164132 -21.0633739897816
   endloop
endfacet
facet normal -2.12975526505834e-015 1.0 -6.44484465794904e-014
   outer loop
      vertex 0.638824389421202 -1194.00112845915 -21.0633739897816
      vertex 0.0694224901956326 -1194.07609164132 -19.0633739897816
      vertex 0.638824389421208 -1194.00112845915 -19.0633739897816
   endloop
endfacet
facet normal 0.258819045102521 0.965925826289068 -5.70932821618122e-014
   outer loop
      vertex -0.499979409029897 -1194.00112845915 -19.0633739897816
      vertex 0.069422490195627 -1194.07609164132 -21.0633739897816
      vertex -0.499979409029903 -1194.00112845915 -21.0633739897816
   endloop
endfacet
facet normal 0.258819045102521 0.965925826289068 -5.70932821618122e-014
   outer loop
      vertex 0.069422490195627 -1194.07609164132 -21.0633739897816
      vertex -0.499979409029897 -1194.00112845915 -19.0633739897816
      vertex 0.0694224901956326 -1194.07609164132 -19.0633739897816
   endloop
endfacet
facet normal 0.499999999999999 0.866025403784439 -4.58473049159166e-014
   outer loop
      vertex -1.03057750980434 -1193.78134752964 -19.0633739897817
      vertex -0.499979409029903 -1194.00112845915 -21.0633739897816
      vertex -1.03057750980435 -1193.78134752964 -21.0633739897817
   endloop
endfacet
facet normal 0.499999999999999 0.866025403784439 -4.58473049159166e-014
   outer loop
      vertex -0.499979409029903 -1194.00112845915 -21.0633739897816
      vertex -1.03057750980434 -1193.78134752964 -19.0633739897817
      vertex -0.499979409029897 -1194.00112845915 -19.0633739897816
   endloop
endfacet
facet normal 1.99333741127328e-014 -6.42863556226484e-014 -1.0
   outer loop
      vertex 3.34566205949223 -1191.87609164132 -19.0633739897817
      vertex 2.19445930803151 -1192.44549354054 -19.0633739897817
      vertex 2.26942249019563 -1191.87609164132 -19.0633739897817
   endloop
endfacet
facet normal 1.99333741127328e-014 -6.42863556226484e-014 -1.0
   outer loop
      vertex 2.19445930803151 -1192.44549354054 -19.0633739897817
      vertex 3.34566205949223 -1191.87609164132 -19.0633739897817
      vertex 1.70754227484387 -1194.71339833721 -19.0633739897815
   endloop
endfacet
facet normal 1.99333741127328e-014 -6.42863556226484e-014 -1.0
   outer loop
      vertex 2.19445930803151 -1192.44549354054 -19.0633739897817
      vertex 1.70754227484387 -1194.71339833721 -19.0633739897815
      vertex 1.97467837852137 -1192.97609164132 -19.0633739897817
   endloop
endfacet
facet normal 1.99333741127328e-014 -6.42863556226484e-014 -1.0
   outer loop
      vertex 1.97467837852137 -1192.97609164132 -19.0633739897817
      vertex 1.70754227484387 -1194.71339833721 -19.0633739897815
      vertex 1.62505740880607 -1193.43172655993 -19.0633739897816
   endloop
endfacet
facet normal 1.99333741127328e-014 -6.42863556226484e-014 -1.0
   outer loop
      vertex 1.62505740880607 -1193.43172655993 -19.0633739897816
      vertex 1.70754227484387 -1194.71339833721 -19.0633739897815
      vertex 1.16942249019565 -1193.78134752964 -19.0633739897816
   endloop
endfacet
facet normal 1.99333741127328e-014 -6.42863556226484e-014 -1.0
   outer loop
      vertex 1.16942249019565 -1193.78134752964 -19.0633739897816
      vertex 1.70754227484387 -1194.71339833721 -19.0633739897815
      vertex 0.638824389421208 -1194.00112845915 -19.0633739897816
   endloop
endfacet
facet normal 1.99333741127328e-014 -6.42863556226484e-014 -1.0
   outer loop
      vertex 0.638824389421208 -1194.00112845915 -19.0633739897816
      vertex 1.70754227484387 -1194.71339833721 -19.0633739897815
      vertex -1.56869729445274 -1194.71339833721 -19.0633739897816
   endloop
endfacet
facet normal 1.99333741127328e-014 -6.42863556226484e-014 -1.0
   outer loop
      vertex 0.638824389421208 -1194.00112845915 -19.0633739897816
      vertex -1.56869729445274 -1194.71339833721 -19.0633739897816
      vertex 0.0694224901956326 -1194.07609164132 -19.0633739897816
   endloop
endfacet
facet normal 1.99333741127328e-014 -6.42863556226484e-014 -1.0
   outer loop
      vertex 0.0694224901956326 -1194.07609164132 -19.0633739897816
      vertex -1.56869729445274 -1194.71339833721 -19.0633739897816
      vertex -0.499979409029897 -1194.00112845915 -19.0633739897816
   endloop
endfacet
facet normal 1.99333741127328e-014 -6.42863556226484e-014 -1.0
   outer loop
      vertex -0.499979409029897 -1194.00112845915 -19.0633739897816
      vertex -1.56869729445274 -1194.71339833721 -19.0633739897816
      vertex -1.03057750980434 -1193.78134752964 -19.0633739897817
   endloop
endfacet
facet normal 1.99333741127328e-014 -6.42863556226484e-014 -1.0
   outer loop
      vertex -1.03057750980434 -1193.78134752964 -19.0633739897817
      vertex -1.56869729445274 -1194.71339833721 -19.0633739897816
      vertex -1.48621242841476 -1193.43172655993 -19.0633739897817
   endloop
endfacet
facet normal 1.99333741127328e-014 -6.42863556226484e-014 -1.0
   outer loop
      vertex -1.48621242841476 -1193.43172655993 -19.0633739897817
      vertex -1.56869729445274 -1194.71339833721 -19.0633739897816
      vertex -1.83583339813015 -1192.97609164132 -19.0633739897817
   endloop
endfacet
facet normal 1.99333741127328e-014 -6.42863556226484e-014 -1.0
   outer loop
      vertex -1.83583339813015 -1192.97609164132 -19.0633739897817
      vertex -1.56869729445274 -1194.71339833721 -19.0633739897816
      vertex -3.20681707910097 -1191.87609164132 -19.0633739897818
   endloop
endfacet
facet normal 1.99333741127328e-014 -6.42863556226484e-014 -1.0
   outer loop
      vertex -1.83583339813015 -1192.97609164132 -19.0633739897817
      vertex -3.20681707910097 -1191.87609164132 -19.0633739897818
      vertex -2.05561432764038 -1192.44549354054 -19.0633739897818
   endloop
endfacet
facet normal 1.99333741127328e-014 -6.42863556226484e-014 -1.0
   outer loop
      vertex -2.05561432764038 -1192.44549354054 -19.0633739897818
      vertex -3.20681707910097 -1191.87609164132 -19.0633739897818
      vertex -2.13057750980436 -1191.87609164132 -19.0633739897818
   endloop
endfacet
facet normal 1.99333741127328e-014 -6.42863556226484e-014 -1.0
   outer loop
      vertex 3.34566205949223 -1191.87609164132 -19.0633739897817
      vertex 2.19445930803155 -1191.30668974209 -19.0633739897818
      vertex 1.70754227484391 -1189.03878494542 -19.0633739897819
   endloop
endfacet
facet normal 1.99333741127328e-014 -6.42863556226484e-014 -1.0
   outer loop
      vertex 2.19445930803155 -1191.30668974209 -19.0633739897818
      vertex 3.34566205949223 -1191.87609164132 -19.0633739897817
      vertex 2.26942249019563 -1191.87609164132 -19.0633739897817
   endloop
endfacet
facet normal 1.99333741127328e-014 -6.42863556226484e-014 -1.0
   outer loop
      vertex 1.70754227484391 -1189.03878494542 -19.0633739897819
      vertex 2.19445930803155 -1191.30668974209 -19.0633739897818
      vertex 1.97467837852137 -1190.77609164132 -19.0633739897818
   endloop
endfacet
facet normal 1.99333741127328e-014 -6.42863556226484e-014 -1.0
   outer loop
      vertex 1.70754227484391 -1189.03878494542 -19.0633739897819
      vertex 1.97467837852137 -1190.77609164132 -19.0633739897818
      vertex 1.62505740880602 -1190.32045672271 -19.0633739897818
   endloop
endfacet
facet normal 1.99333741127328e-014 -6.42863556226484e-014 -1.0
   outer loop
      vertex 1.70754227484391 -1189.03878494542 -19.0633739897819
      vertex 1.62505740880602 -1190.32045672271 -19.0633739897818
      vertex 1.16942249019565 -1189.97083575299 -19.0633739897819
   endloop
endfacet
facet normal 1.99333741127328e-014 -6.42863556226484e-014 -1.0
   outer loop
      vertex 1.70754227484391 -1189.03878494542 -19.0633739897819
      vertex 1.16942249019565 -1189.97083575299 -19.0633739897819
      vertex 0.638824389421208 -1189.75105482348 -19.0633739897819
   endloop
endfacet
facet normal 1.99333741127328e-014 -6.42863556226484e-014 -1.0
   outer loop
      vertex 1.70754227484391 -1189.03878494542 -19.0633739897819
      vertex 0.638824389421208 -1189.75105482348 -19.0633739897819
      vertex -1.56869729445269 -1189.03878494542 -19.063373989782
   endloop
endfacet
facet normal 1.99333741127328e-014 -6.42863556226484e-014 -1.0
   outer loop
      vertex -1.56869729445269 -1189.03878494542 -19.063373989782
      vertex 0.638824389421208 -1189.75105482348 -19.0633739897819
      vertex 0.0694224901956326 -1189.67609164132 -19.0633739897819
   endloop
endfacet
facet normal 1.99333741127328e-014 -6.42863556226484e-014 -1.0
   outer loop
      vertex -1.56869729445269 -1189.03878494542 -19.063373989782
      vertex 0.0694224901956326 -1189.67609164132 -19.0633739897819
      vertex -0.499979409029897 -1189.75105482348 -19.0633739897819
   endloop
endfacet
facet normal 1.99333741127328e-014 -6.42863556226484e-014 -1.0
   outer loop
      vertex -1.56869729445269 -1189.03878494542 -19.063373989782
      vertex -0.499979409029897 -1189.75105482348 -19.0633739897819
      vertex -1.03057750980434 -1189.97083575299 -19.0633739897819
   endloop
endfacet
facet normal 1.99333741127328e-014 -6.42863556226484e-014 -1.0
   outer loop
      vertex -1.56869729445269 -1189.03878494542 -19.063373989782
      vertex -1.03057750980434 -1189.97083575299 -19.0633739897819
      vertex -1.4862124284148 -1190.32045672271 -19.0633739897819
   endloop
endfacet
facet normal 1.99333741127328e-014 -6.42863556226484e-014 -1.0
   outer loop
      vertex -1.56869729445269 -1189.03878494542 -19.063373989782
      vertex -1.4862124284148 -1190.32045672271 -19.0633739897819
      vertex -1.83583339813015 -1190.77609164132 -19.0633739897819
   endloop
endfacet
facet normal 1.99333741127328e-014 -6.42863556226484e-014 -1.0
   outer loop
      vertex -1.56869729445269 -1189.03878494542 -19.063373989782
      vertex -1.83583339813015 -1190.77609164132 -19.0633739897819
      vertex -3.20681707910097 -1191.87609164132 -19.0633739897818
   endloop
endfacet
facet normal 1.99333741127328e-014 -6.42863556226484e-014 -1.0
   outer loop
      vertex -3.20681707910097 -1191.87609164132 -19.0633739897818
      vertex -1.83583339813015 -1190.77609164132 -19.0633739897819
      vertex -2.05561432764033 -1191.30668974209 -19.0633739897818
   endloop
endfacet
facet normal 1.99333741127328e-014 -6.42863556226484e-014 -1.0
   outer loop
      vertex -3.20681707910097 -1191.87609164132 -19.0633739897818
      vertex -2.05561432764033 -1191.30668974209 -19.0633739897818
      vertex -2.13057750980436 -1191.87609164132 -19.0633739897818
   endloop
endfacet
facet normal 0.707106781186548 -0.707106781186547 5.96659304121219e-014
   outer loop
      vertex 6.34545079537199 -1195.49955827275 -17.0633739897814
      vertex 7.87690799174852 -1193.96810107638 -21.0633739897815
      vertex 7.87690799174848 -1193.96810107638 -17.0633739897815
   endloop
endfacet
facet normal 0.707106781186548 -0.707106781186547 5.96659304121219e-014
   outer loop
      vertex 7.87690799174852 -1193.96810107638 -21.0633739897815
      vertex 6.34545079537199 -1195.49955827275 -17.0633739897814
      vertex 6.34545079537202 -1195.49955827275 -21.0633739897814
   endloop
endfacet
facet normal 0.965925826289069 -0.25881904510252 3.59330379648358e-014
   outer loop
      vertex 5.78489855668964 -1197.59156770781 -17.0633739897813
      vertex 6.34545079537202 -1195.49955827275 -21.0633739897814
      vertex 6.34545079537199 -1195.49955827275 -17.0633739897814
   endloop
endfacet
facet normal 0.965925826289069 -0.25881904510252 3.59330379648358e-014
   outer loop
      vertex 6.34545079537202 -1195.49955827275 -21.0633739897814
      vertex 5.78489855668964 -1197.59156770781 -17.0633739897813
      vertex 5.78489855668972 -1197.59156770781 -21.0633739897813
   endloop
endfacet
facet normal 0.258819045102521 -0.965925826289068 6.74113849898285e-014
   outer loop
      vertex 5.78489855668972 -1197.59156770781 -21.0633739897813
      vertex 3.69288912163084 -1198.15211994649 -17.0633739897813
      vertex 3.69288912163088 -1198.15211994649 -21.0633739897813
   endloop
endfacet
facet normal 0.258819045102521 -0.965925826289068 6.74113849898285e-014
   outer loop
      vertex 3.69288912163084 -1198.15211994649 -17.0633739897813
      vertex 5.78489855668972 -1197.59156770781 -21.0633739897813
      vertex 5.78489855668964 -1197.59156770781 -17.0633739897813
   endloop
endfacet
facet normal 0.707106781186547 -0.707106781186548 5.9665930412122e-014
   outer loop
      vertex 3.69288912163084 -1198.15211994649 -17.0633739897813
      vertex 2.16143192525443 -1199.68357714287 -21.0633739897812
      vertex 3.69288912163088 -1198.15211994649 -21.0633739897813
   endloop
endfacet
facet normal 0.707106781186547 -0.707106781186548 5.9665930412122e-014
   outer loop
      vertex 2.16143192525443 -1199.68357714287 -21.0633739897812
      vertex 3.69288912163084 -1198.15211994649 -17.0633739897813
      vertex 2.16143192525435 -1199.68357714287 -17.0633739897812
   endloop
endfacet
facet normal -0.258819045102521 -0.965925826289068 5.70940133988471e-014
   outer loop
      vertex 2.16143192525435 -1199.68357714287 -17.0633739897812
      vertex 0.0694224901955818 -1199.12302490419 -21.0633739897813
      vertex 2.16143192525443 -1199.68357714287 -21.0633739897812
   endloop
endfacet
facet normal -0.258819045102521 -0.965925826289068 5.70940133988471e-014
   outer loop
      vertex 0.0694224901955818 -1199.12302490419 -21.0633739897813
      vertex 2.16143192525435 -1199.68357714287 -17.0633739897812
      vertex 0.0694224901955015 -1199.12302490419 -17.0633739897813
   endloop
endfacet
facet normal 0.258819045102519 -0.965925826289069 6.74113849898285e-014
   outer loop
      vertex 0.0694224901955818 -1199.12302490419 -21.0633739897813
      vertex -2.02258694486325 -1199.68357714287 -17.0633739897813
      vertex -2.02258694486317 -1199.68357714287 -21.0633739897813
   endloop
endfacet
facet normal 0.258819045102519 -0.965925826289069 6.74113849898285e-014
   outer loop
      vertex -2.02258694486325 -1199.68357714287 -17.0633739897813
      vertex 0.0694224901955818 -1199.12302490419 -21.0633739897813
      vertex 0.0694224901955015 -1199.12302490419 -17.0633739897813
   endloop
endfacet
facet normal -0.707106781186548 -0.707106781186547 3.14783470249927e-014
   outer loop
      vertex -2.02258694486317 -1199.68357714287 -21.0633739897813
      vertex -3.55404414123975 -1198.15211994649 -17.0633739897814
      vertex -3.55404414123971 -1198.15211994649 -21.0633739897814
   endloop
endfacet
facet normal -0.707106781186548 -0.707106781186547 3.14783470249927e-014
   outer loop
      vertex -3.55404414123975 -1198.15211994649 -17.0633739897814
      vertex -2.02258694486317 -1199.68357714287 -21.0633739897813
      vertex -2.02258694486325 -1199.68357714287 -17.0633739897813
   endloop
endfacet
facet normal -0.258819045102522 -0.965925826289068 5.70940133988471e-014
   outer loop
      vertex -3.55404414123975 -1198.15211994649 -17.0633739897814
      vertex -5.64605357629847 -1197.59156770781 -21.0633739897815
      vertex -3.55404414123971 -1198.15211994649 -21.0633739897814
   endloop
endfacet
facet normal -0.258819045102522 -0.965925826289068 5.70940133988471e-014
   outer loop
      vertex -5.64605357629847 -1197.59156770781 -21.0633739897815
      vertex -3.55404414123975 -1198.15211994649 -17.0633739897814
      vertex -5.64605357629855 -1197.59156770781 -17.0633739897815
   endloop
endfacet
facet normal -0.965925826289069 -0.258819045102519 -2.57191701327512e-015
   outer loop
      vertex -5.64605357629847 -1197.59156770781 -21.0633739897815
      vertex -6.20660581498085 -1195.49955827275 -17.0633739897816
      vertex -6.20660581498077 -1195.49955827275 -21.0633739897816
   endloop
endfacet
facet normal -0.965925826289069 -0.258819045102519 -2.57191701327512e-015
   outer loop
      vertex -6.20660581498085 -1195.49955827275 -17.0633739897816
      vertex -5.64605357629847 -1197.59156770781 -21.0633739897815
      vertex -5.64605357629855 -1197.59156770781 -17.0633739897815
   endloop
endfacet
facet normal -0.707106781186548 -0.707106781186548 3.14783470249927e-014
   outer loop
      vertex -6.20660581498077 -1195.49955827275 -21.0633739897816
      vertex -7.73806301135734 -1193.96810107638 -17.0633739897818
      vertex -7.73806301135726 -1193.96810107638 -21.0633739897818
   endloop
endfacet
facet normal -0.707106781186548 -0.707106781186548 3.14783470249927e-014
   outer loop
      vertex -7.73806301135734 -1193.96810107638 -17.0633739897818
      vertex -6.20660581498077 -1195.49955827275 -21.0633739897816
      vertex -6.20660581498085 -1195.49955827275 -17.0633739897816
   endloop
endfacet
facet normal -0.965925826289068 0.258819045102524 -3.5933037964836e-014
   outer loop
      vertex -7.73806301135726 -1193.96810107638 -21.0633739897818
      vertex -7.17751077267504 -1191.87609164132 -17.0633739897819
      vertex -7.17751077267497 -1191.87609164132 -21.0633739897819
   endloop
endfacet
facet normal -0.965925826289068 0.258819045102524 -3.5933037964836e-014
   outer loop
      vertex -7.17751077267504 -1191.87609164132 -17.0633739897819
      vertex -7.73806301135726 -1193.96810107638 -21.0633739897818
      vertex -7.73806301135734 -1193.96810107638 -17.0633739897818
   endloop
endfacet
facet normal -0.965925826289068 -0.258819045102522 -2.5719170132749e-015
   outer loop
      vertex -7.17751077267497 -1191.87609164132 -21.0633739897819
      vertex -7.73806301135734 -1189.78408220626 -17.063373989782
      vertex -7.73806301135726 -1189.78408220626 -21.063373989782
   endloop
endfacet
facet normal -0.965925826289068 -0.258819045102522 -2.5719170132749e-015
   outer loop
      vertex -7.73806301135734 -1189.78408220626 -17.063373989782
      vertex -7.17751077267497 -1191.87609164132 -21.0633739897819
      vertex -7.17751077267504 -1191.87609164132 -17.0633739897819
   endloop
endfacet
facet normal -0.707106781186546 0.707106781186549 -5.96659304121221e-014
   outer loop
      vertex -7.73806301135734 -1189.78408220626 -17.063373989782
      vertex -6.20660581498072 -1188.25262500988 -21.0633739897821
      vertex -7.73806301135726 -1189.78408220626 -21.063373989782
   endloop
endfacet
facet normal -0.707106781186546 0.707106781186549 -5.96659304121221e-014
   outer loop
      vertex -6.20660581498072 -1188.25262500988 -21.0633739897821
      vertex -7.73806301135734 -1189.78408220626 -17.063373989782
      vertex -6.2066058149808 -1188.25262500988 -17.0633739897821
   endloop
endfacet
facet normal -0.965925826289068 0.258819045102521 -3.59330379648358e-014
   outer loop
      vertex -6.20660581498072 -1188.25262500988 -21.0633739897821
      vertex -5.6460535762985 -1186.16061557482 -17.0633739897822
      vertex -5.64605357629842 -1186.16061557482 -21.0633739897822
   endloop
endfacet
facet normal -0.965925826289068 0.258819045102521 -3.59330379648358e-014
   outer loop
      vertex -5.6460535762985 -1186.16061557482 -17.0633739897822
      vertex -6.20660581498072 -1188.25262500988 -21.0633739897821
      vertex -6.2066058149808 -1188.25262500988 -17.0633739897821
   endloop
endfacet
facet normal -0.258819045102517 0.965925826289069 -6.74113849898284e-014
   outer loop
      vertex -5.64605357629842 -1186.16061557482 -21.0633739897822
      vertex -3.55404414123979 -1185.60006333614 -17.0633739897823
      vertex -3.55404414123971 -1185.60006333614 -21.0633739897822
   endloop
endfacet
facet normal -0.258819045102517 0.965925826289069 -6.74113849898284e-014
   outer loop
      vertex -3.55404414123979 -1185.60006333614 -17.0633739897823
      vertex -5.64605357629842 -1186.16061557482 -21.0633739897822
      vertex -5.6460535762985 -1186.16061557482 -17.0633739897822
   endloop
endfacet
facet normal -0.707106781186549 0.707106781186546 -5.96659304121219e-014
   outer loop
      vertex -3.55404414123971 -1185.60006333614 -21.0633739897822
      vertex -2.02258694486325 -1184.06860613977 -17.0633739897823
      vertex -2.02258694486317 -1184.06860613977 -21.0633739897823
   endloop
endfacet
facet normal -0.707106781186549 0.707106781186546 -5.96659304121219e-014
   outer loop
      vertex -2.02258694486325 -1184.06860613977 -17.0633739897823
      vertex -3.55404414123971 -1185.60006333614 -21.0633739897822
      vertex -3.55404414123979 -1185.60006333614 -17.0633739897823
   endloop
endfacet
facet normal 0.258819045102523 0.965925826289068 -5.7094013398847e-014
   outer loop
      vertex -2.02258694486325 -1184.06860613977 -17.0633739897823
      vertex 0.069422490195627 -1184.62915837845 -21.0633739897822
      vertex -2.02258694486317 -1184.06860613977 -21.0633739897823
   endloop
endfacet
facet normal 0.258819045102523 0.965925826289068 -5.7094013398847e-014
   outer loop
      vertex 0.069422490195627 -1184.62915837845 -21.0633739897822
      vertex -2.02258694486325 -1184.06860613977 -17.0633739897823
      vertex 0.0694224901955466 -1184.62915837845 -17.0633739897822
   endloop
endfacet
facet normal -0.258819045102522 0.965925826289068 -6.74113849898285e-014
   outer loop
      vertex 0.069422490195627 -1184.62915837845 -21.0633739897822
      vertex 2.16143192525435 -1184.06860613977 -17.0633739897822
      vertex 2.16143192525443 -1184.06860613977 -21.0633739897822
   endloop
endfacet
facet normal -0.258819045102522 0.965925826289068 -6.74113849898285e-014
   outer loop
      vertex 2.16143192525435 -1184.06860613977 -17.0633739897822
      vertex 0.069422490195627 -1184.62915837845 -21.0633739897822
      vertex 0.0694224901955466 -1184.62915837845 -17.0633739897822
   endloop
endfacet
facet normal 0.707106781186549 0.707106781186546 -3.14783470249926e-014
   outer loop
      vertex 3.6928891216308 -1185.60006333614 -17.0633739897821
      vertex 2.16143192525443 -1184.06860613977 -21.0633739897822
      vertex 2.16143192525435 -1184.06860613977 -17.0633739897822
   endloop
endfacet
facet normal 0.707106781186549 0.707106781186546 -3.14783470249926e-014
   outer loop
      vertex 2.16143192525443 -1184.06860613977 -21.0633739897822
      vertex 3.6928891216308 -1185.60006333614 -17.0633739897821
      vertex 3.69288912163088 -1185.60006333614 -21.0633739897821
   endloop
endfacet
facet normal 0.25881904510252 0.965925826289068 -5.70940133988471e-014
   outer loop
      vertex 3.6928891216308 -1185.60006333614 -17.0633739897821
      vertex 5.78489855668972 -1186.16061557482 -21.063373989782
      vertex 3.69288912163088 -1185.60006333614 -21.0633739897821
   endloop
endfacet
facet normal 0.25881904510252 0.965925826289068 -5.70940133988471e-014
   outer loop
      vertex 5.78489855668972 -1186.16061557482 -21.063373989782
      vertex 3.6928891216308 -1185.60006333614 -17.0633739897821
      vertex 5.78489855668964 -1186.16061557482 -17.063373989782
   endloop
endfacet
facet normal 0.965925826289069 0.258819045102519 2.57191701327509e-015
   outer loop
      vertex 6.34545079537194 -1188.25262500988 -17.0633739897818
      vertex 5.78489855668972 -1186.16061557482 -21.063373989782
      vertex 5.78489855668964 -1186.16061557482 -17.063373989782
   endloop
endfacet
facet normal 0.965925826289069 0.258819045102519 2.57191701327509e-015
   outer loop
      vertex 5.78489855668972 -1186.16061557482 -21.063373989782
      vertex 6.34545079537194 -1188.25262500988 -17.0633739897818
      vertex 6.34545079537202 -1188.25262500988 -21.0633739897818
   endloop
endfacet
facet normal 0.707106781186548 0.707106781186547 -3.14783470249927e-014
   outer loop
      vertex 7.87690799174848 -1189.78408220626 -17.0633739897817
      vertex 6.34545079537202 -1188.25262500988 -21.0633739897818
      vertex 6.34545079537194 -1188.25262500988 -17.0633739897818
   endloop
endfacet
facet normal 0.707106781186548 0.707106781186547 -3.14783470249927e-014
   outer loop
      vertex 6.34545079537202 -1188.25262500988 -21.0633739897818
      vertex 7.87690799174848 -1189.78408220626 -17.0633739897817
      vertex 7.87690799174856 -1189.78408220626 -21.0633739897817
   endloop
endfacet
facet normal 0.965925826289068 -0.258819045102523 3.5933037964836e-014
   outer loop
      vertex 7.31635575306618 -1191.87609164132 -17.0633739897816
      vertex 7.87690799174856 -1189.78408220626 -21.0633739897817
      vertex 7.87690799174848 -1189.78408220626 -17.0633739897817
   endloop
endfacet
facet normal 0.965925826289068 -0.258819045102523 3.5933037964836e-014
   outer loop
      vertex 7.87690799174856 -1189.78408220626 -21.0633739897817
      vertex 7.31635575306618 -1191.87609164132 -17.0633739897816
      vertex 7.31635575306622 -1191.87609164132 -21.0633739897816
   endloop
endfacet
facet normal 0.965925826289068 0.258819045102521 2.57191701327499e-015
   outer loop
      vertex 7.87690799174848 -1193.96810107638 -17.0633739897815
      vertex 7.31635575306622 -1191.87609164132 -21.0633739897816
      vertex 7.31635575306618 -1191.87609164132 -17.0633739897816
   endloop
endfacet
facet normal 0.965925826289068 0.258819045102521 2.57191701327499e-015
   outer loop
      vertex 7.31635575306622 -1191.87609164132 -21.0633739897816
      vertex 7.87690799174848 -1193.96810107638 -17.0633739897815
      vertex 7.87690799174852 -1193.96810107638 -21.0633739897815
   endloop
endfacet
facet normal 0.866025403784439 -0.5 4.94870316545108e-014
   outer loop
      vertex -3.20681707910101 -1191.87609164132 -17.0633739897818
      vertex -1.56869729445269 -1189.03878494542 -19.063373989782
      vertex -1.56869729445273 -1189.03878494542 -17.063373989782
   endloop
endfacet
facet normal 0.866025403784439 -0.5 4.94870316545108e-014
   outer loop
      vertex -1.56869729445269 -1189.03878494542 -19.063373989782
      vertex -3.20681707910101 -1191.87609164132 -17.0633739897818
      vertex -3.20681707910097 -1191.87609164132 -19.0633739897818
   endloop
endfacet
facet normal -1.27441980488622e-027 -1.0 6.44484465794903e-014
   outer loop
      vertex 1.70754227484387 -1189.03878494542 -17.0633739897819
      vertex -1.56869729445269 -1189.03878494542 -19.063373989782
      vertex 1.70754227484391 -1189.03878494542 -19.0633739897819
   endloop
endfacet
facet normal -1.27441980488622e-027 -1.0 6.44484465794903e-014
   outer loop
      vertex -1.56869729445269 -1189.03878494542 -19.063373989782
      vertex 1.70754227484387 -1189.03878494542 -17.0633739897819
      vertex -1.56869729445273 -1189.03878494542 -17.063373989782
   endloop
endfacet
facet normal -0.866025403784439 -0.499999999999999 1.49614149249794e-014
   outer loop
      vertex 3.34566205949223 -1191.87609164132 -19.0633739897817
      vertex 1.70754227484387 -1189.03878494542 -17.0633739897819
      vertex 1.70754227484391 -1189.03878494542 -19.0633739897819
   endloop
endfacet
facet normal -0.866025403784439 -0.499999999999999 1.49614149249794e-014
   outer loop
      vertex 1.70754227484387 -1189.03878494542 -17.0633739897819
      vertex 3.34566205949223 -1191.87609164132 -19.0633739897817
      vertex 3.3456620594922 -1191.87609164132 -17.0633739897817
   endloop
endfacet
facet normal -0.866025403784438 0.500000000000002 -4.94564066995235e-014
   outer loop
      vertex 1.70754227484387 -1194.71339833721 -19.0633739897815
      vertex 3.3456620594922 -1191.87609164132 -17.0633739897817
      vertex 3.34566205949223 -1191.87609164132 -19.0633739897817
   endloop
endfacet
facet normal -0.866025403784438 0.500000000000002 -4.94564066995235e-014
   outer loop
      vertex 3.3456620594922 -1191.87609164132 -17.0633739897817
      vertex 1.70754227484387 -1194.71339833721 -19.0633739897815
      vertex 1.70754227484383 -1194.71339833721 -17.0633739897816
   endloop
endfacet
facet normal 1.27441980488622e-027 1.0 -6.44484465794903e-014
   outer loop
      vertex -1.56869729445278 -1194.71339833721 -17.0633739897816
      vertex 1.70754227484387 -1194.71339833721 -19.0633739897815
      vertex -1.56869729445274 -1194.71339833721 -19.0633739897816
   endloop
endfacet
facet normal 1.27441980488622e-027 1.0 -6.44484465794903e-014
   outer loop
      vertex 1.70754227484387 -1194.71339833721 -19.0633739897815
      vertex -1.56869729445278 -1194.71339833721 -17.0633739897816
      vertex 1.70754227484383 -1194.71339833721 -17.0633739897816
   endloop
endfacet
facet normal 0.866025403784438 0.5 -1.48958157763121e-014
   outer loop
      vertex -1.56869729445278 -1194.71339833721 -17.0633739897816
      vertex -3.20681707910097 -1191.87609164132 -19.0633739897818
      vertex -3.20681707910101 -1191.87609164132 -17.0633739897818
   endloop
endfacet
facet normal 0.866025403784438 0.5 -1.48958157763121e-014
   outer loop
      vertex -3.20681707910097 -1191.87609164132 -19.0633739897818
      vertex -1.56869729445278 -1194.71339833721 -17.0633739897816
      vertex -1.56869729445274 -1194.71339833721 -19.0633739897816
   endloop
endfacet
endsolid tee_fold_Max_Build_Plate
