solid tee_fold_Max_Build_Plate
facet normal -0.862983864362738 -0.505231481451379 -4.77770578559034e-014
   outer loop
      vertex 263.804935082206 -1406.6130994124 -20.9999999999975
      vertex 263.956972183427 -1406.97395741986 -17.9999999999975
      vertex 263.804935082206 -1406.6130994124 -17.9999999999975
   endloop
endfacet
facet normal -0.862983864362738 -0.505231481451379 -4.77770578559034e-014
   outer loop
      vertex 263.956972183427 -1406.97395741986 -17.9999999999975
      vertex 263.804935082206 -1406.6130994124 -20.9999999999975
      vertex 263.956972183427 -1406.97395741986 -20.9999999999975
   endloop
endfacet
facet normal 0.0 -1.0 0.0
   outer loop
      vertex 326.010459285662 -1405.87094663457 -20.999999999994
      vertex 325.622230718008 -1405.92205789514 -17.9999999999941
      vertex 325.622230718008 -1405.92205789514 -20.9999999999941
   endloop
endfacet
facet normal 0.0 -1.0 0.0
   outer loop
      vertex 325.622230718008 -1405.92205789514 -17.9999999999941
      vertex 326.010459285662 -1405.87094663457 -20.999999999994
      vertex 326.010459285662 -1405.87094663457 -17.999999999994
   endloop
endfacet
facet normal 0.258819045102528 0.965925826289066 1.4328903474e-014
   outer loop
      vertex 325.622230718008 -1408.81983537401 -17.9999999999941
      vertex 325.260459285662 -1408.66998474025 -20.9999999999941
      vertex 325.260459285662 -1408.66998474025 -17.9999999999941
   endloop
endfacet
facet normal 0.258819045102528 0.965925826289066 1.4328903474e-014
   outer loop
      vertex 325.260459285662 -1408.66998474025 -20.9999999999941
      vertex 325.622230718008 -1408.81983537401 -17.9999999999941
      vertex 325.622230718008 -1408.81983537401 -20.9999999999941
   endloop
endfacet
facet normal 0.258819045102528 -0.965925826289066 1.4328903474e-014
   outer loop
      vertex 325.622230718008 -1405.92205789514 -20.9999999999941
      vertex 325.260459285662 -1406.0719085289 -17.9999999999941
      vertex 325.260459285662 -1406.0719085289 -20.9999999999941
   endloop
endfacet
facet normal 0.258819045102528 -0.965925826289066 1.4328903474e-014
   outer loop
      vertex 325.260459285662 -1406.0719085289 -17.9999999999941
      vertex 325.622230718008 -1405.92205789514 -20.9999999999941
      vertex 325.622230718008 -1405.92205789514 -17.9999999999941
   endloop
endfacet
facet normal 1.0 0.0 5.53626317117573e-014
   outer loop
      vertex 357.510459285662 -1395.87094663457 -20.9999999999925
      vertex 357.51045928566 -1393.37094663457 14.0000000000076
      vertex 357.51045928566 -1395.87094663457 14.0000000000076
   endloop
endfacet
facet normal 1.0 0.0 5.53626317117573e-014
   outer loop
      vertex 357.51045928566 -1393.37094663457 14.0000000000076
      vertex 357.510459285662 -1395.87094663457 -20.9999999999925
      vertex 357.510459285662 -1393.37094663457 -20.9999999999925
   endloop
endfacet
facet normal -0.702814872673746 -0.711372795901408 -3.89096809573822e-014
   outer loop
      vertex 263.564681594673 -1406.30388744072 -20.9999999999975
      vertex 263.804935082206 -1406.6130994124 -17.9999999999975
      vertex 263.564681594672 -1406.30388744072 -17.9999999999975
   endloop
endfacet
facet normal -0.702814872673746 -0.711372795901408 -3.89096809573822e-014
   outer loop
      vertex 263.804935082206 -1406.6130994124 -17.9999999999975
      vertex 263.564681594673 -1406.30388744072 -20.9999999999975
      vertex 263.804935082206 -1406.6130994124 -20.9999999999975
   endloop
endfacet
facet normal 0.252969135942335 0.967474349148642 1.4005037107617e-014
   outer loop
      vertex 262.131005581748 -1408.8221581583 -17.9999999999976
      vertex 261.768333972359 -1408.67449947944 -20.9999999999976
      vertex 261.768333972359 -1408.67449947944 -17.9999999999976
   endloop
endfacet
facet normal 0.252969135942335 0.967474349148642 1.4005037107617e-014
   outer loop
      vertex 261.768333972359 -1408.67449947944 -20.9999999999976
      vertex 262.131005581748 -1408.8221581583 -17.9999999999976
      vertex 262.131005581748 -1408.8221581583 -20.9999999999976
   endloop
endfacet
facet normal -5.60998483231607e-015 -1.0 -1.07772414017685e-016
   outer loop
      vertex 339.510459285662 -1415.87094663457 -20.9999999999935
      vertex 323.010459285662 -1415.87094663457 -17.9999999999944
      vertex 323.010459285662 -1415.87094663457 -20.9999999999944
   endloop
endfacet
facet normal -5.60998483231607e-015 -1.0 -1.07772414017685e-016
   outer loop
      vertex 323.010459285662 -1415.87094663457 -17.9999999999944
      vertex 339.510459285662 -1415.87094663457 -20.9999999999935
      vertex 337.010459285662 -1415.87094663457 -17.9999999999937
   endloop
endfacet
facet normal -5.60998483231607e-015 -1.0 -1.07772414017685e-016
   outer loop
      vertex 337.010459285662 -1415.87094663457 -17.9999999999937
      vertex 339.510459285662 -1415.87094663457 -20.9999999999935
      vertex 337.01045928566 -1415.87094663457 14.0000000000064
   endloop
endfacet
facet normal -5.60998483231607e-015 -1.0 -1.07772414017685e-016
   outer loop
      vertex 337.01045928566 -1415.87094663457 14.0000000000064
      vertex 339.510459285662 -1415.87094663457 -20.9999999999935
      vertex 339.51045928566 -1415.87094663457 14.0000000000066
   endloop
endfacet
facet normal -5.60998483231607e-015 -1.0 -1.07772414017685e-016
   outer loop
      vertex 339.51045928566 -1415.87094663457 14.0000000000066
      vertex 339.510459285662 -1415.87094663457 -20.9999999999935
      vertex 339.510459285662 -1415.87094663457 -17.9999999999935
   endloop
endfacet
facet normal 0.964341931843691 0.26465947647492 5.33885072168668e-014
   outer loop
      vertex 261.063946387896 -1407.76793584929 -20.9999999999976
      vertex 261.010486750182 -1407.38002368289 -17.9999999999976
      vertex 261.063946387896 -1407.76793584929 -17.9999999999976
   endloop
endfacet
facet normal 0.964341931843691 0.26465947647492 5.33885072168668e-014
   outer loop
      vertex 261.010486750182 -1407.38002368289 -17.9999999999976
      vertex 261.063946387896 -1407.76793584929 -20.9999999999976
      vertex 261.010486750182 -1407.38002368289 -20.9999999999976
   endloop
endfacet
facet normal -0.252969135942335 -0.967474349148642 -1.4005037107617e-014
   outer loop
      vertex 262.889912989575 -1405.91973511085 -20.9999999999975
      vertex 262.501382237341 -1405.87097409909 -17.9999999999976
      vertex 262.501382237341 -1405.87097409909 -20.9999999999976
   endloop
endfacet
facet normal -0.252969135942335 -0.967474349148642 -1.4005037107617e-014
   outer loop
      vertex 262.501382237341 -1405.87097409909 -17.9999999999976
      vertex 262.889912989575 -1405.91973511085 -20.9999999999975
      vertex 262.889912989575 -1405.91973511085 -17.9999999999975
   endloop
endfacet
facet normal -0.965925826289066 -0.258819045102528 -5.34761957817164e-014
   outer loop
      vertex 327.459348025095 -1406.98271806692 -20.999999999994
      vertex 327.510459285662 -1407.37094663457 -17.999999999994
      vertex 327.459348025095 -1406.98271806692 -17.999999999994
   endloop
endfacet
facet normal -0.965925826289066 -0.258819045102528 -5.34761957817164e-014
   outer loop
      vertex 327.510459285662 -1407.37094663457 -17.999999999994
      vertex 327.459348025095 -1406.98271806692 -20.999999999994
      vertex 327.510459285662 -1407.37094663457 -20.999999999994
   endloop
endfacet
facet normal -1.0 0.0 -5.53626317117573e-014
   outer loop
      vertex 257.010459285662 -1393.37094663457 -20.999999999998
      vertex 257.01045928566 -1395.87094663457 14.000000000002
      vertex 257.01045928566 -1393.37094663457 14.000000000002
   endloop
endfacet
facet normal -1.0 0.0 -5.53626317117573e-014
   outer loop
      vertex 257.01045928566 -1395.87094663457 14.000000000002
      vertex 257.010459285662 -1393.37094663457 -20.999999999998
      vertex 257.010459285662 -1395.87094663457 -17.999999999998
   endloop
endfacet
facet normal -1.0 0.0 -5.53626317117573e-014
   outer loop
      vertex 257.010459285662 -1395.87094663457 -17.999999999998
      vertex 257.010459285662 -1393.37094663457 -20.999999999998
      vertex 257.010459285662 -1416.37094663457 -17.999999999998
   endloop
endfacet
facet normal -1.0 0.0 -5.53626317117573e-014
   outer loop
      vertex 257.010459285662 -1416.37094663457 -17.999999999998
      vertex 257.010459285662 -1393.37094663457 -20.999999999998
      vertex 257.010459285662 -1416.37094663457 -20.999999999998
   endloop
endfacet
facet normal -0.866025403784425 0.500000000000023 -4.79454454827431e-014
   outer loop
      vertex 327.309497391339 -1408.12094663457 -20.999999999994
      vertex 327.071119457442 -1408.43160680635 -17.999999999994
      vertex 327.309497391338 -1408.12094663457 -17.999999999994
   endloop
endfacet
facet normal -0.866025403784425 0.500000000000023 -4.79454454827431e-014
   outer loop
      vertex 327.071119457442 -1408.43160680635 -17.999999999994
      vertex 327.309497391339 -1408.12094663457 -20.999999999994
      vertex 327.071119457442 -1408.43160680635 -20.999999999994
   endloop
endfacet
facet normal -0.258819045102528 0.965925826289066 -1.4328903474e-014
   outer loop
      vertex 326.398687853315 -1408.81983537401 -17.999999999994
      vertex 326.010459285662 -1408.87094663457 -20.999999999994
      vertex 326.010459285662 -1408.87094663457 -17.999999999994
   endloop
endfacet
facet normal -0.258819045102528 0.965925826289066 -1.4328903474e-014
   outer loop
      vertex 326.010459285662 -1408.87094663457 -20.999999999994
      vertex 326.398687853315 -1408.81983537401 -17.999999999994
      vertex 326.398687853316 -1408.81983537401 -20.999999999994
   endloop
endfacet
facet normal -0.967474349148663 0.252969135942256 -5.35619260824895e-014
   outer loop
      vertex 263.961670809385 -1407.75040033849 -20.9999999999975
      vertex 263.814012130527 -1408.11307194788 -17.9999999999975
      vertex 263.961670809385 -1407.75040033849 -17.9999999999975
   endloop
endfacet
facet normal -0.967474349148663 0.252969135942256 -5.35619260824895e-014
   outer loop
      vertex 263.814012130527 -1408.11307194788 -17.9999999999975
      vertex 263.961670809385 -1407.75040033849 -20.9999999999975
      vertex 263.814012130527 -1408.11307194788 -20.9999999999975
   endloop
endfacet
facet normal 1.0 0.0 5.53626317117573e-014
   outer loop
      vertex 265.010459285662 -1416.37094663457 -20.9999999999976
      vertex 265.010459285662 -1395.87094663457 -17.9999999999976
      vertex 265.010459285662 -1416.37094663457 -17.9999999999976
   endloop
endfacet
facet normal 1.0 0.0 5.53626317117573e-014
   outer loop
      vertex 265.010459285662 -1395.87094663457 -17.9999999999976
      vertex 265.010459285662 -1416.37094663457 -20.9999999999976
      vertex 265.010459285662 -1395.87094663457 -20.9999999999976
   endloop
endfacet
facet normal 0.500000000000012 0.866025403784432 2.76813158558793e-014
   outer loop
      vertex 325.260459285662 -1408.66998474025 -17.9999999999941
      vertex 324.949799113882 -1408.43160680635 -20.9999999999941
      vertex 324.949799113882 -1408.43160680635 -17.9999999999941
   endloop
endfacet
facet normal 0.500000000000012 0.866025403784432 2.76813158558793e-014
   outer loop
      vertex 324.949799113882 -1408.43160680635 -20.9999999999941
      vertex 325.260459285662 -1408.66998474025 -17.9999999999941
      vertex 325.260459285662 -1408.66998474025 -20.9999999999941
   endloop
endfacet
facet normal 0.0 1.0 0.0
   outer loop
      vertex 326.010459285662 -1408.87094663457 -17.999999999994
      vertex 325.622230718008 -1408.81983537401 -20.9999999999941
      vertex 325.622230718008 -1408.81983537401 -17.9999999999941
   endloop
endfacet
facet normal 0.0 1.0 0.0
   outer loop
      vertex 325.622230718008 -1408.81983537401 -20.9999999999941
      vertex 326.010459285662 -1408.87094663457 -17.999999999994
      vertex 326.010459285662 -1408.87094663457 -20.999999999994
   endloop
endfacet
facet normal -0.702814872673746 -0.711372795901408 -3.89096809573822e-014
   outer loop
      vertex 263.564681594673 -1406.30388744072 -20.9999999999975
      vertex 263.252584598965 -1406.06739378971 -17.9999999999975
      vertex 263.252584598965 -1406.06739378971 -20.9999999999975
   endloop
endfacet
facet normal -0.702814872673746 -0.711372795901408 -3.89096809573822e-014
   outer loop
      vertex 263.252584598965 -1406.06739378971 -17.9999999999975
      vertex 263.564681594673 -1406.30388744072 -20.9999999999975
      vertex 263.564681594672 -1406.30388744072 -17.9999999999975
   endloop
endfacet
facet normal -0.00605136554714804 0.999981690319885 -3.35019522139974e-016
   outer loop
      vertex 262.519536333983 -1408.87091917005 -17.9999999999975
      vertex 262.131005581748 -1408.8221581583 -20.9999999999976
      vertex 262.131005581748 -1408.8221581583 -17.9999999999976
   endloop
endfacet
facet normal -0.00605136554714804 0.999981690319885 -3.35019522139974e-016
   outer loop
      vertex 262.131005581748 -1408.8221581583 -20.9999999999976
      vertex 262.519536333983 -1408.87091917005 -17.9999999999975
      vertex 262.519536333983 -1408.87091917005 -20.9999999999975
   endloop
endfacet
facet normal 0.0 -1.0 0.0
   outer loop
      vertex 357.510459285662 -1395.87094663457 -20.9999999999925
      vertex 339.51045928566 -1395.87094663457 14.0000000000066
      vertex 339.510459285662 -1395.87094663457 -20.9999999999935
   endloop
endfacet
facet normal 0.0 -1.0 0.0
   outer loop
      vertex 339.51045928566 -1395.87094663457 14.0000000000066
      vertex 357.510459285662 -1395.87094663457 -20.9999999999925
      vertex 357.51045928566 -1395.87094663457 14.0000000000076
   endloop
endfacet
facet normal -0.707106781186561 -0.707106781186534 -3.91472923077177e-014
   outer loop
      vertex 327.071119457442 -1406.31028646279 -20.999999999994
      vertex 327.309497391338 -1406.62094663457 -17.999999999994
      vertex 327.071119457442 -1406.31028646279 -17.999999999994
   endloop
endfacet
facet normal -0.707106781186561 -0.707106781186534 -3.91472923077177e-014
   outer loop
      vertex 327.309497391338 -1406.62094663457 -17.999999999994
      vertex 327.071119457442 -1406.31028646279 -20.999999999994
      vertex 327.309497391339 -1406.62094663457 -20.999999999994
   endloop
endfacet
facet normal 0.862983864362738 0.505231481451379 4.77770578559034e-014
   outer loop
      vertex 261.215983489118 -1408.12879385675 -20.9999999999976
      vertex 261.063946387896 -1407.76793584929 -17.9999999999976
      vertex 261.215983489118 -1408.12879385675 -17.9999999999976
   endloop
endfacet
facet normal 0.862983864362738 0.505231481451379 4.77770578559034e-014
   outer loop
      vertex 261.063946387896 -1407.76793584929 -17.9999999999976
      vertex 261.215983489118 -1408.12879385675 -20.9999999999976
      vertex 261.063946387896 -1407.76793584929 -20.9999999999976
   endloop
endfacet
facet normal 5.53626317117573e-014 0.0 -1.0
   outer loop
      vertex 257.010459285662 -1416.37094663457 -20.999999999998
      vertex 261.215983489118 -1408.12879385675 -20.9999999999976
      vertex 265.010459285662 -1416.37094663457 -20.9999999999976
   endloop
endfacet
facet normal 5.53626317117573e-014 0.0 -1.0
   outer loop
      vertex 261.215983489118 -1408.12879385675 -20.9999999999976
      vertex 257.010459285662 -1416.37094663457 -20.999999999998
      vertex 261.063946387896 -1407.76793584929 -20.9999999999976
   endloop
endfacet
facet normal 5.53626317117573e-014 0.0 -1.0
   outer loop
      vertex 261.063946387896 -1407.76793584929 -20.9999999999976
      vertex 257.010459285662 -1416.37094663457 -20.999999999998
      vertex 257.010459285662 -1393.37094663457 -20.999999999998
   endloop
endfacet
facet normal 5.53626317117573e-014 0.0 -1.0
   outer loop
      vertex 265.010459285662 -1416.37094663457 -20.9999999999976
      vertex 261.215983489118 -1408.12879385675 -20.9999999999976
      vertex 261.456236976651 -1408.43800582843 -20.9999999999976
   endloop
endfacet
facet normal 5.53626317117573e-014 0.0 -1.0
   outer loop
      vertex 265.010459285662 -1416.37094663457 -20.9999999999976
      vertex 261.456236976651 -1408.43800582843 -20.9999999999976
      vertex 261.768333972359 -1408.67449947944 -20.9999999999976
   endloop
endfacet
facet normal 5.53626317117573e-014 0.0 -1.0
   outer loop
      vertex 265.010459285662 -1416.37094663457 -20.9999999999976
      vertex 261.768333972359 -1408.67449947944 -20.9999999999976
      vertex 262.131005581748 -1408.8221581583 -20.9999999999976
   endloop
endfacet
facet normal 5.53626317117573e-014 0.0 -1.0
   outer loop
      vertex 265.010459285662 -1416.37094663457 -20.9999999999976
      vertex 262.131005581748 -1408.8221581583 -20.9999999999976
      vertex 262.519536333983 -1408.87091917005 -20.9999999999975
   endloop
endfacet
facet normal 5.53626317117573e-014 0.0 -1.0
   outer loop
      vertex 261.063946387896 -1407.76793584929 -20.9999999999976
      vertex 257.010459285662 -1393.37094663457 -20.999999999998
      vertex 261.010486750182 -1407.38002368289 -20.9999999999976
   endloop
endfacet
facet normal 5.53626317117573e-014 0.0 -1.0
   outer loop
      vertex 261.010486750182 -1407.38002368289 -20.9999999999976
      vertex 257.010459285662 -1393.37094663457 -20.999999999998
      vertex 261.059247761939 -1406.99149293066 -20.9999999999976
   endloop
endfacet
facet normal 5.53626317117573e-014 0.0 -1.0
   outer loop
      vertex 261.059247761939 -1406.99149293066 -20.9999999999976
      vertex 257.010459285662 -1393.37094663457 -20.999999999998
      vertex 261.206906440797 -1406.62882132127 -20.9999999999976
   endloop
endfacet
facet normal 5.53626317117573e-014 0.0 -1.0
   outer loop
      vertex 261.206906440797 -1406.62882132127 -20.9999999999976
      vertex 257.010459285662 -1393.37094663457 -20.999999999998
      vertex 261.44340009181 -1406.31672432556 -20.9999999999976
   endloop
endfacet
facet normal 5.53626317117573e-014 0.0 -1.0
   outer loop
      vertex 261.44340009181 -1406.31672432556 -20.9999999999976
      vertex 257.010459285662 -1393.37094663457 -20.999999999998
      vertex 261.752612063485 -1406.07647083803 -20.9999999999976
   endloop
endfacet
facet normal 5.53626317117573e-014 0.0 -1.0
   outer loop
      vertex 261.752612063485 -1406.07647083803 -20.9999999999976
      vertex 257.010459285662 -1393.37094663457 -20.999999999998
      vertex 262.11347007095 -1405.92443373681 -20.9999999999976
   endloop
endfacet
facet normal 5.53626317117573e-014 0.0 -1.0
   outer loop
      vertex 262.11347007095 -1405.92443373681 -20.9999999999976
      vertex 257.010459285662 -1393.37094663457 -20.999999999998
      vertex 262.501382237341 -1405.87097409909 -20.9999999999976
   endloop
endfacet
facet normal 5.53626317117573e-014 0.0 -1.0
   outer loop
      vertex 262.501382237341 -1405.87097409909 -20.9999999999976
      vertex 257.010459285662 -1393.37094663457 -20.999999999998
      vertex 265.010459285662 -1395.87094663457 -20.9999999999976
   endloop
endfacet
facet normal 5.53626317117573e-014 0.0 -1.0
   outer loop
      vertex 265.010459285662 -1395.87094663457 -20.9999999999976
      vertex 257.010459285662 -1393.37094663457 -20.999999999998
      vertex 323.010459285662 -1395.87094663457 -20.9999999999944
   endloop
endfacet
facet normal 5.53626317117573e-014 0.0 -1.0
   outer loop
      vertex 323.010459285662 -1415.87094663457 -20.9999999999944
      vertex 325.622230718008 -1408.81983537401 -20.9999999999941
      vertex 326.010459285662 -1408.87094663457 -20.999999999994
   endloop
endfacet
facet normal 5.53626317117573e-014 0.0 -1.0
   outer loop
      vertex 325.622230718008 -1408.81983537401 -20.9999999999941
      vertex 323.010459285662 -1415.87094663457 -20.9999999999944
      vertex 325.260459285662 -1408.66998474025 -20.9999999999941
   endloop
endfacet
facet normal 5.53626317117573e-014 0.0 -1.0
   outer loop
      vertex 325.260459285662 -1408.66998474025 -20.9999999999941
      vertex 323.010459285662 -1415.87094663457 -20.9999999999944
      vertex 324.949799113882 -1408.43160680635 -20.9999999999941
   endloop
endfacet
facet normal 5.53626317117573e-014 0.0 -1.0
   outer loop
      vertex 324.949799113882 -1408.43160680635 -20.9999999999941
      vertex 323.010459285662 -1415.87094663457 -20.9999999999944
      vertex 324.711421179985 -1408.12094663457 -20.9999999999941
   endloop
endfacet
facet normal 5.53626317117573e-014 0.0 -1.0
   outer loop
      vertex 324.711421179985 -1408.12094663457 -20.9999999999941
      vertex 323.010459285662 -1415.87094663457 -20.9999999999944
      vertex 324.561570546228 -1407.75917520223 -20.9999999999941
   endloop
endfacet
facet normal 5.53626317117573e-014 0.0 -1.0
   outer loop
      vertex 324.561570546228 -1407.75917520223 -20.9999999999941
      vertex 323.010459285662 -1415.87094663457 -20.9999999999944
      vertex 324.510459285662 -1407.37094663457 -20.9999999999941
   endloop
endfacet
facet normal 5.53626317117573e-014 0.0 -1.0
   outer loop
      vertex 324.510459285662 -1407.37094663457 -20.9999999999941
      vertex 323.010459285662 -1415.87094663457 -20.9999999999944
      vertex 323.010459285662 -1395.87094663457 -20.9999999999944
   endloop
endfacet
facet normal 5.53626317117573e-014 0.0 -1.0
   outer loop
      vertex 324.510459285662 -1407.37094663457 -20.9999999999941
      vertex 323.010459285662 -1395.87094663457 -20.9999999999944
      vertex 324.561570546228 -1406.98271806692 -20.9999999999941
   endloop
endfacet
facet normal 5.53626317117573e-014 0.0 -1.0
   outer loop
      vertex 324.561570546228 -1406.98271806692 -20.9999999999941
      vertex 323.010459285662 -1395.87094663457 -20.9999999999944
      vertex 324.711421179985 -1406.62094663457 -20.9999999999941
   endloop
endfacet
facet normal 5.53626317117573e-014 0.0 -1.0
   outer loop
      vertex 324.711421179985 -1406.62094663457 -20.9999999999941
      vertex 323.010459285662 -1395.87094663457 -20.9999999999944
      vertex 324.949799113882 -1406.31028646279 -20.9999999999941
   endloop
endfacet
facet normal 5.53626317117573e-014 0.0 -1.0
   outer loop
      vertex 324.949799113882 -1406.31028646279 -20.9999999999941
      vertex 323.010459285662 -1395.87094663457 -20.9999999999944
      vertex 325.260459285662 -1406.0719085289 -20.9999999999941
   endloop
endfacet
facet normal 5.53626317117573e-014 0.0 -1.0
   outer loop
      vertex 325.260459285662 -1406.0719085289 -20.9999999999941
      vertex 323.010459285662 -1395.87094663457 -20.9999999999944
      vertex 325.622230718008 -1405.92205789514 -20.9999999999941
   endloop
endfacet
facet normal 5.53626317117573e-014 0.0 -1.0
   outer loop
      vertex 325.622230718008 -1405.92205789514 -20.9999999999941
      vertex 323.010459285662 -1395.87094663457 -20.9999999999944
      vertex 326.010459285662 -1405.87094663457 -20.999999999994
   endloop
endfacet
facet normal 5.53626317117573e-014 0.0 -1.0
   outer loop
      vertex 326.010459285662 -1405.87094663457 -20.999999999994
      vertex 323.010459285662 -1395.87094663457 -20.9999999999944
      vertex 339.510459285662 -1395.87094663457 -20.9999999999935
   endloop
endfacet
facet normal 5.53626317117573e-014 0.0 -1.0
   outer loop
      vertex 339.510459285662 -1395.87094663457 -20.9999999999935
      vertex 323.010459285662 -1395.87094663457 -20.9999999999944
      vertex 357.510459285662 -1395.87094663457 -20.9999999999925
   endloop
endfacet
facet normal 5.53626317117573e-014 0.0 -1.0
   outer loop
      vertex 357.510459285662 -1395.87094663457 -20.9999999999925
      vertex 323.010459285662 -1395.87094663457 -20.9999999999944
      vertex 357.510459285662 -1393.37094663457 -20.9999999999925
   endloop
endfacet
facet normal 5.53626317117573e-014 0.0 -1.0
   outer loop
      vertex 357.510459285662 -1393.37094663457 -20.9999999999925
      vertex 323.010459285662 -1395.87094663457 -20.9999999999944
      vertex 257.010459285662 -1393.37094663457 -20.999999999998
   endloop
endfacet
facet normal 5.53626317117573e-014 0.0 -1.0
   outer loop
      vertex 323.010459285662 -1415.87094663457 -20.9999999999944
      vertex 339.510459285662 -1395.87094663457 -20.9999999999935
      vertex 339.510459285662 -1415.87094663457 -20.9999999999935
   endloop
endfacet
facet normal 5.53626317117573e-014 0.0 -1.0
   outer loop
      vertex 339.510459285662 -1395.87094663457 -20.9999999999935
      vertex 323.010459285662 -1415.87094663457 -20.9999999999944
      vertex 327.071119457442 -1408.43160680635 -20.999999999994
   endloop
endfacet
facet normal 5.53626317117573e-014 0.0 -1.0
   outer loop
      vertex 327.071119457442 -1408.43160680635 -20.999999999994
      vertex 323.010459285662 -1415.87094663457 -20.9999999999944
      vertex 326.760459285662 -1408.66998474025 -20.999999999994
   endloop
endfacet
facet normal 5.53626317117573e-014 0.0 -1.0
   outer loop
      vertex 326.760459285662 -1408.66998474025 -20.999999999994
      vertex 323.010459285662 -1415.87094663457 -20.9999999999944
      vertex 326.398687853316 -1408.81983537401 -20.999999999994
   endloop
endfacet
facet normal 5.53626317117573e-014 0.0 -1.0
   outer loop
      vertex 326.398687853316 -1408.81983537401 -20.999999999994
      vertex 323.010459285662 -1415.87094663457 -20.9999999999944
      vertex 326.010459285662 -1408.87094663457 -20.999999999994
   endloop
endfacet
facet normal 5.53626317117573e-014 0.0 -1.0
   outer loop
      vertex 339.510459285662 -1395.87094663457 -20.9999999999935
      vertex 327.071119457442 -1408.43160680635 -20.999999999994
      vertex 327.309497391339 -1408.12094663457 -20.999999999994
   endloop
endfacet
facet normal 5.53626317117573e-014 0.0 -1.0
   outer loop
      vertex 339.510459285662 -1395.87094663457 -20.9999999999935
      vertex 327.309497391339 -1408.12094663457 -20.999999999994
      vertex 327.459348025095 -1407.75917520223 -20.999999999994
   endloop
endfacet
facet normal 5.53626317117573e-014 0.0 -1.0
   outer loop
      vertex 339.510459285662 -1395.87094663457 -20.9999999999935
      vertex 327.459348025095 -1407.75917520223 -20.999999999994
      vertex 327.510459285662 -1407.37094663457 -20.999999999994
   endloop
endfacet
facet normal 5.53626317117573e-014 0.0 -1.0
   outer loop
      vertex 339.510459285662 -1395.87094663457 -20.9999999999935
      vertex 327.510459285662 -1407.37094663457 -20.999999999994
      vertex 327.459348025095 -1406.98271806692 -20.999999999994
   endloop
endfacet
facet normal 5.53626317117573e-014 0.0 -1.0
   outer loop
      vertex 339.510459285662 -1395.87094663457 -20.9999999999935
      vertex 327.459348025095 -1406.98271806692 -20.999999999994
      vertex 327.309497391339 -1406.62094663457 -20.999999999994
   endloop
endfacet
facet normal 5.53626317117573e-014 0.0 -1.0
   outer loop
      vertex 339.510459285662 -1395.87094663457 -20.9999999999935
      vertex 327.309497391339 -1406.62094663457 -20.999999999994
      vertex 327.071119457442 -1406.31028646279 -20.999999999994
   endloop
endfacet
facet normal 5.53626317117573e-014 0.0 -1.0
   outer loop
      vertex 339.510459285662 -1395.87094663457 -20.9999999999935
      vertex 327.071119457442 -1406.31028646279 -20.999999999994
      vertex 326.760459285662 -1406.0719085289 -20.999999999994
   endloop
endfacet
facet normal 5.53626317117573e-014 0.0 -1.0
   outer loop
      vertex 339.510459285662 -1395.87094663457 -20.9999999999935
      vertex 326.760459285662 -1406.0719085289 -20.999999999994
      vertex 326.398687853316 -1405.92205789514 -20.999999999994
   endloop
endfacet
facet normal 5.53626317117573e-014 0.0 -1.0
   outer loop
      vertex 339.510459285662 -1395.87094663457 -20.9999999999935
      vertex 326.398687853316 -1405.92205789514 -20.999999999994
      vertex 326.010459285662 -1405.87094663457 -20.999999999994
   endloop
endfacet
facet normal 5.53626317117573e-014 0.0 -1.0
   outer loop
      vertex 265.010459285662 -1416.37094663457 -20.9999999999976
      vertex 264.010431821142 -1407.36186958625 -20.9999999999975
      vertex 265.010459285662 -1395.87094663457 -20.9999999999976
   endloop
endfacet
facet normal 5.53626317117573e-014 0.0 -1.0
   outer loop
      vertex 264.010431821142 -1407.36186958625 -20.9999999999975
      vertex 265.010459285662 -1416.37094663457 -20.9999999999976
      vertex 263.961670809385 -1407.75040033849 -20.9999999999975
   endloop
endfacet
facet normal 5.53626317117573e-014 0.0 -1.0
   outer loop
      vertex 263.961670809385 -1407.75040033849 -20.9999999999975
      vertex 265.010459285662 -1416.37094663457 -20.9999999999976
      vertex 263.814012130527 -1408.11307194788 -20.9999999999975
   endloop
endfacet
facet normal 5.53626317117573e-014 0.0 -1.0
   outer loop
      vertex 263.814012130527 -1408.11307194788 -20.9999999999975
      vertex 265.010459285662 -1416.37094663457 -20.9999999999976
      vertex 263.577518479514 -1408.42516894358 -20.9999999999975
   endloop
endfacet
facet normal 5.53626317117573e-014 0.0 -1.0
   outer loop
      vertex 263.577518479514 -1408.42516894358 -20.9999999999975
      vertex 265.010459285662 -1416.37094663457 -20.9999999999976
      vertex 263.268306507839 -1408.66542243112 -20.9999999999975
   endloop
endfacet
facet normal 5.53626317117573e-014 0.0 -1.0
   outer loop
      vertex 263.268306507839 -1408.66542243112 -20.9999999999975
      vertex 265.010459285662 -1416.37094663457 -20.9999999999976
      vertex 262.907448500374 -1408.81745953234 -20.9999999999975
   endloop
endfacet
facet normal 5.53626317117573e-014 0.0 -1.0
   outer loop
      vertex 262.907448500374 -1408.81745953234 -20.9999999999975
      vertex 265.010459285662 -1416.37094663457 -20.9999999999976
      vertex 262.519536333983 -1408.87091917005 -20.9999999999975
   endloop
endfacet
facet normal 5.53626317117573e-014 0.0 -1.0
   outer loop
      vertex 265.010459285662 -1395.87094663457 -20.9999999999976
      vertex 264.010431821142 -1407.36186958625 -20.9999999999975
      vertex 263.956972183427 -1406.97395741986 -20.9999999999975
   endloop
endfacet
facet normal 5.53626317117573e-014 0.0 -1.0
   outer loop
      vertex 265.010459285662 -1395.87094663457 -20.9999999999976
      vertex 263.956972183427 -1406.97395741986 -20.9999999999975
      vertex 263.804935082206 -1406.6130994124 -20.9999999999975
   endloop
endfacet
facet normal 5.53626317117573e-014 0.0 -1.0
   outer loop
      vertex 265.010459285662 -1395.87094663457 -20.9999999999976
      vertex 263.804935082206 -1406.6130994124 -20.9999999999975
      vertex 263.564681594673 -1406.30388744072 -20.9999999999975
   endloop
endfacet
facet normal 5.53626317117573e-014 0.0 -1.0
   outer loop
      vertex 265.010459285662 -1395.87094663457 -20.9999999999976
      vertex 263.564681594673 -1406.30388744072 -20.9999999999975
      vertex 263.252584598965 -1406.06739378971 -20.9999999999975
   endloop
endfacet
facet normal 5.53626317117573e-014 0.0 -1.0
   outer loop
      vertex 265.010459285662 -1395.87094663457 -20.9999999999976
      vertex 263.252584598965 -1406.06739378971 -20.9999999999975
      vertex 262.889912989575 -1405.91973511085 -20.9999999999975
   endloop
endfacet
facet normal 5.53626317117573e-014 0.0 -1.0
   outer loop
      vertex 265.010459285662 -1395.87094663457 -20.9999999999976
      vertex 262.889912989575 -1405.91973511085 -20.9999999999975
      vertex 262.501382237341 -1405.87097409909 -20.9999999999976
   endloop
endfacet
facet normal -5.53626317117573e-014 0.0 1.0
   outer loop
      vertex 265.010459285662 -1416.37094663457 -17.9999999999976
      vertex 263.577518479514 -1408.42516894358 -17.9999999999975
      vertex 257.010459285662 -1416.37094663457 -17.999999999998
   endloop
endfacet
facet normal -5.53626317117573e-014 0.0 1.0
   outer loop
      vertex 263.577518479514 -1408.42516894358 -17.9999999999975
      vertex 265.010459285662 -1416.37094663457 -17.9999999999976
      vertex 263.814012130527 -1408.11307194788 -17.9999999999975
   endloop
endfacet
facet normal -5.53626317117573e-014 0.0 1.0
   outer loop
      vertex 263.814012130527 -1408.11307194788 -17.9999999999975
      vertex 265.010459285662 -1416.37094663457 -17.9999999999976
      vertex 263.961670809385 -1407.75040033849 -17.9999999999975
   endloop
endfacet
facet normal -5.53626317117573e-014 0.0 1.0
   outer loop
      vertex 263.961670809385 -1407.75040033849 -17.9999999999975
      vertex 265.010459285662 -1416.37094663457 -17.9999999999976
      vertex 264.010431821142 -1407.36186958625 -17.9999999999975
   endloop
endfacet
facet normal -5.53626317117573e-014 0.0 1.0
   outer loop
      vertex 264.010431821142 -1407.36186958625 -17.9999999999975
      vertex 265.010459285662 -1416.37094663457 -17.9999999999976
      vertex 265.010459285662 -1395.87094663457 -17.9999999999976
   endloop
endfacet
facet normal -5.53626317117573e-014 0.0 1.0
   outer loop
      vertex 257.010459285662 -1416.37094663457 -17.999999999998
      vertex 263.577518479514 -1408.42516894358 -17.9999999999975
      vertex 263.268306507839 -1408.66542243112 -17.9999999999975
   endloop
endfacet
facet normal -5.53626317117573e-014 0.0 1.0
   outer loop
      vertex 257.010459285662 -1416.37094663457 -17.999999999998
      vertex 263.268306507839 -1408.66542243112 -17.9999999999975
      vertex 262.907448500374 -1408.81745953234 -17.9999999999975
   endloop
endfacet
facet normal -5.53626317117573e-014 0.0 1.0
   outer loop
      vertex 257.010459285662 -1416.37094663457 -17.999999999998
      vertex 262.907448500374 -1408.81745953234 -17.9999999999975
      vertex 262.519536333983 -1408.87091917005 -17.9999999999975
   endloop
endfacet
facet normal -5.53626317117573e-014 0.0 1.0
   outer loop
      vertex 264.010431821142 -1407.36186958625 -17.9999999999975
      vertex 265.010459285662 -1395.87094663457 -17.9999999999976
      vertex 263.956972183427 -1406.97395741986 -17.9999999999975
   endloop
endfacet
facet normal -5.53626317117573e-014 0.0 1.0
   outer loop
      vertex 263.956972183427 -1406.97395741986 -17.9999999999975
      vertex 265.010459285662 -1395.87094663457 -17.9999999999976
      vertex 263.804935082206 -1406.6130994124 -17.9999999999975
   endloop
endfacet
facet normal -5.53626317117573e-014 0.0 1.0
   outer loop
      vertex 263.804935082206 -1406.6130994124 -17.9999999999975
      vertex 265.010459285662 -1395.87094663457 -17.9999999999976
      vertex 263.564681594672 -1406.30388744072 -17.9999999999975
   endloop
endfacet
facet normal -5.53626317117573e-014 0.0 1.0
   outer loop
      vertex 263.564681594672 -1406.30388744072 -17.9999999999975
      vertex 265.010459285662 -1395.87094663457 -17.9999999999976
      vertex 263.252584598965 -1406.06739378971 -17.9999999999975
   endloop
endfacet
facet normal -5.53626317117573e-014 0.0 1.0
   outer loop
      vertex 263.252584598965 -1406.06739378971 -17.9999999999975
      vertex 265.010459285662 -1395.87094663457 -17.9999999999976
      vertex 262.889912989575 -1405.91973511085 -17.9999999999975
   endloop
endfacet
facet normal -5.53626317117573e-014 0.0 1.0
   outer loop
      vertex 262.889912989575 -1405.91973511085 -17.9999999999975
      vertex 265.010459285662 -1395.87094663457 -17.9999999999976
      vertex 262.501382237341 -1405.87097409909 -17.9999999999976
   endloop
endfacet
facet normal -5.53626317117573e-014 0.0 1.0
   outer loop
      vertex 262.501382237341 -1405.87097409909 -17.9999999999976
      vertex 265.010459285662 -1395.87094663457 -17.9999999999976
      vertex 257.010459285662 -1395.87094663457 -17.999999999998
   endloop
endfacet
facet normal -5.53626317117573e-014 0.0 1.0
   outer loop
      vertex 257.010459285662 -1416.37094663457 -17.999999999998
      vertex 261.063946387896 -1407.76793584929 -17.9999999999976
      vertex 257.010459285662 -1395.87094663457 -17.999999999998
   endloop
endfacet
facet normal -5.53626317117573e-014 0.0 1.0
   outer loop
      vertex 261.063946387896 -1407.76793584929 -17.9999999999976
      vertex 257.010459285662 -1416.37094663457 -17.999999999998
      vertex 261.215983489118 -1408.12879385675 -17.9999999999976
   endloop
endfacet
facet normal -5.53626317117573e-014 0.0 1.0
   outer loop
      vertex 261.215983489118 -1408.12879385675 -17.9999999999976
      vertex 257.010459285662 -1416.37094663457 -17.999999999998
      vertex 261.456236976651 -1408.43800582843 -17.9999999999976
   endloop
endfacet
facet normal -5.53626317117573e-014 0.0 1.0
   outer loop
      vertex 261.456236976651 -1408.43800582843 -17.9999999999976
      vertex 257.010459285662 -1416.37094663457 -17.999999999998
      vertex 261.768333972359 -1408.67449947944 -17.9999999999976
   endloop
endfacet
facet normal -5.53626317117573e-014 0.0 1.0
   outer loop
      vertex 261.768333972359 -1408.67449947944 -17.9999999999976
      vertex 257.010459285662 -1416.37094663457 -17.999999999998
      vertex 262.131005581748 -1408.8221581583 -17.9999999999976
   endloop
endfacet
facet normal -5.53626317117573e-014 0.0 1.0
   outer loop
      vertex 262.131005581748 -1408.8221581583 -17.9999999999976
      vertex 257.010459285662 -1416.37094663457 -17.999999999998
      vertex 262.519536333983 -1408.87091917005 -17.9999999999975
   endloop
endfacet
facet normal -5.53626317117573e-014 0.0 1.0
   outer loop
      vertex 257.010459285662 -1395.87094663457 -17.999999999998
      vertex 261.063946387896 -1407.76793584929 -17.9999999999976
      vertex 261.010486750182 -1407.38002368289 -17.9999999999976
   endloop
endfacet
facet normal -5.53626317117573e-014 0.0 1.0
   outer loop
      vertex 257.010459285662 -1395.87094663457 -17.999999999998
      vertex 261.010486750182 -1407.38002368289 -17.9999999999976
      vertex 261.059247761939 -1406.99149293066 -17.9999999999976
   endloop
endfacet
facet normal -5.53626317117573e-014 0.0 1.0
   outer loop
      vertex 257.010459285662 -1395.87094663457 -17.999999999998
      vertex 261.059247761939 -1406.99149293066 -17.9999999999976
      vertex 261.206906440797 -1406.62882132127 -17.9999999999976
   endloop
endfacet
facet normal -5.53626317117573e-014 0.0 1.0
   outer loop
      vertex 257.010459285662 -1395.87094663457 -17.999999999998
      vertex 261.206906440797 -1406.62882132127 -17.9999999999976
      vertex 261.44340009181 -1406.31672432556 -17.9999999999976
   endloop
endfacet
facet normal -5.53626317117573e-014 0.0 1.0
   outer loop
      vertex 257.010459285662 -1395.87094663457 -17.999999999998
      vertex 261.44340009181 -1406.31672432556 -17.9999999999976
      vertex 261.752612063485 -1406.07647083803 -17.9999999999976
   endloop
endfacet
facet normal -5.53626317117573e-014 0.0 1.0
   outer loop
      vertex 257.010459285662 -1395.87094663457 -17.999999999998
      vertex 261.752612063485 -1406.07647083803 -17.9999999999976
      vertex 262.113470070949 -1405.92443373681 -17.9999999999976
   endloop
endfacet
facet normal -5.53626317117573e-014 0.0 1.0
   outer loop
      vertex 257.010459285662 -1395.87094663457 -17.999999999998
      vertex 262.113470070949 -1405.92443373681 -17.9999999999976
      vertex 262.501382237341 -1405.87097409909 -17.9999999999976
   endloop
endfacet
facet normal 0.00605136554714798 -0.999981690319885 3.3501952213997e-016
   outer loop
      vertex 262.501382237341 -1405.87097409909 -20.9999999999976
      vertex 262.113470070949 -1405.92443373681 -17.9999999999976
      vertex 262.11347007095 -1405.92443373681 -20.9999999999976
   endloop
endfacet
facet normal 0.00605136554714798 -0.999981690319885 3.3501952213997e-016
   outer loop
      vertex 262.113470070949 -1405.92443373681 -17.9999999999976
      vertex 262.501382237341 -1405.87097409909 -20.9999999999976
      vertex 262.501382237341 -1405.87097409909 -17.9999999999976
   endloop
endfacet
facet normal 0.505231481451377 -0.862983864362739 2.79709444367781e-014
   outer loop
      vertex 261.752612063485 -1406.07647083803 -20.9999999999976
      vertex 261.44340009181 -1406.31672432556 -17.9999999999976
      vertex 261.44340009181 -1406.31672432556 -20.9999999999976
   endloop
endfacet
facet normal 0.505231481451377 -0.862983864362739 2.79709444367781e-014
   outer loop
      vertex 261.44340009181 -1406.31672432556 -17.9999999999976
      vertex 261.752612063485 -1406.07647083803 -20.9999999999976
      vertex 261.752612063485 -1406.07647083803 -17.9999999999976
   endloop
endfacet
facet normal 0.965925826289066 -0.258819045102528 5.34761957817164e-014
   outer loop
      vertex 324.561570546228 -1406.98271806692 -20.9999999999941
      vertex 324.711421179985 -1406.62094663457 -17.9999999999941
      vertex 324.561570546228 -1406.98271806692 -17.9999999999941
   endloop
endfacet
facet normal 0.965925826289066 -0.258819045102528 5.34761957817164e-014
   outer loop
      vertex 324.711421179985 -1406.62094663457 -17.9999999999941
      vertex 324.561570546228 -1406.98271806692 -20.9999999999941
      vertex 324.711421179985 -1406.62094663457 -20.9999999999941
   endloop
endfacet
facet normal 0.494750208868502 0.869035229909912 2.73906736029019e-014
   outer loop
      vertex 261.768333972359 -1408.67449947944 -17.9999999999976
      vertex 261.456236976651 -1408.43800582843 -20.9999999999976
      vertex 261.456236976651 -1408.43800582843 -17.9999999999976
   endloop
endfacet
facet normal 0.494750208868502 0.869035229909912 2.73906736029019e-014
   outer loop
      vertex 261.456236976651 -1408.43800582843 -20.9999999999976
      vertex 261.768333972359 -1408.67449947944 -17.9999999999976
      vertex 261.768333972359 -1408.67449947944 -20.9999999999976
   endloop
endfacet
facet normal -0.707106781186561 -0.707106781186534 -3.91472923077177e-014
   outer loop
      vertex 327.071119457442 -1406.31028646279 -20.999999999994
      vertex 326.760459285662 -1406.0719085289 -17.999999999994
      vertex 326.760459285662 -1406.0719085289 -20.999999999994
   endloop
endfacet
facet normal -0.707106781186561 -0.707106781186534 -3.91472923077177e-014
   outer loop
      vertex 326.760459285662 -1406.0719085289 -17.999999999994
      vertex 327.071119457442 -1406.31028646279 -20.999999999994
      vertex 327.071119457442 -1406.31028646279 -17.999999999994
   endloop
endfacet
facet normal -1.0 0.0 -5.53626317117573e-014
   outer loop
      vertex 327.510459285662 -1407.37094663457 -20.999999999994
      vertex 327.459348025095 -1407.75917520223 -17.999999999994
      vertex 327.510459285662 -1407.37094663457 -17.999999999994
   endloop
endfacet
facet normal -1.0 0.0 -5.53626317117573e-014
   outer loop
      vertex 327.459348025095 -1407.75917520223 -17.999999999994
      vertex 327.510459285662 -1407.37094663457 -20.999999999994
      vertex 327.459348025095 -1407.75917520223 -20.999999999994
   endloop
endfacet
facet normal -1.0 0.0 -5.53626317117573e-014
   outer loop
      vertex 323.010459285662 -1395.87094663457 -20.9999999999944
      vertex 323.010459285662 -1415.87094663457 -17.9999999999944
      vertex 323.010459285662 -1395.87094663457 -17.9999999999944
   endloop
endfacet
facet normal -1.0 0.0 -5.53626317117573e-014
   outer loop
      vertex 323.010459285662 -1415.87094663457 -17.9999999999944
      vertex 323.010459285662 -1395.87094663457 -20.9999999999944
      vertex 323.010459285662 -1415.87094663457 -20.9999999999944
   endloop
endfacet
facet normal 1.0 3.37390691356007e-016 5.55223758758279e-014
   outer loop
      vertex 339.510459285662 -1415.87094663457 -17.9999999999935
      vertex 339.51045928566 -1395.87094663457 14.0000000000066
      vertex 339.51045928566 -1415.87094663457 14.0000000000066
   endloop
endfacet
facet normal 1.0 3.37390691356007e-016 5.55223758758279e-014
   outer loop
      vertex 339.51045928566 -1395.87094663457 14.0000000000066
      vertex 339.510459285662 -1415.87094663457 -17.9999999999935
      vertex 339.510459285662 -1395.87094663457 -20.9999999999935
   endloop
endfacet
facet normal 1.0 3.37390691356007e-016 5.55223758758279e-014
   outer loop
      vertex 339.510459285662 -1395.87094663457 -20.9999999999935
      vertex 339.510459285662 -1415.87094663457 -17.9999999999935
      vertex 339.510459285662 -1415.87094663457 -20.9999999999935
   endloop
endfacet
facet normal -0.707106781186561 0.707106781186534 -3.91472923077177e-014
   outer loop
      vertex 327.071119457442 -1408.43160680635 -17.999999999994
      vertex 326.760459285662 -1408.66998474025 -20.999999999994
      vertex 326.760459285662 -1408.66998474025 -17.999999999994
   endloop
endfacet
facet normal -0.707106781186561 0.707106781186534 -3.91472923077177e-014
   outer loop
      vertex 326.760459285662 -1408.66998474025 -20.999999999994
      vertex 327.071119457442 -1408.43160680635 -17.999999999994
      vertex 327.071119457442 -1408.43160680635 -20.999999999994
   endloop
endfacet
facet normal -0.500000000000012 -0.866025403784432 -2.76813158558793e-014
   outer loop
      vertex 326.760459285662 -1406.0719085289 -20.999999999994
      vertex 326.398687853315 -1405.92205789514 -17.999999999994
      vertex 326.398687853316 -1405.92205789514 -20.999999999994
   endloop
endfacet
facet normal -0.500000000000012 -0.866025403784432 -2.76813158558793e-014
   outer loop
      vertex 326.398687853315 -1405.92205789514 -17.999999999994
      vertex 326.760459285662 -1406.0719085289 -20.999999999994
      vertex 326.760459285662 -1406.0719085289 -17.999999999994
   endloop
endfacet
facet normal -0.965925826289066 0.258819045102528 -5.34761957817164e-014
   outer loop
      vertex 327.459348025095 -1407.75917520223 -20.999999999994
      vertex 327.309497391338 -1408.12094663457 -17.999999999994
      vertex 327.459348025095 -1407.75917520223 -17.999999999994
   endloop
endfacet
facet normal -0.965925826289066 0.258819045102528 -5.34761957817164e-014
   outer loop
      vertex 327.309497391338 -1408.12094663457 -17.999999999994
      vertex 327.459348025095 -1407.75917520223 -20.999999999994
      vertex 327.309497391339 -1408.12094663457 -20.999999999994
   endloop
endfacet
facet normal -0.494750208868502 -0.869035229909912 -2.73906736029019e-014
   outer loop
      vertex 263.252584598965 -1406.06739378971 -20.9999999999975
      vertex 262.889912989575 -1405.91973511085 -17.9999999999975
      vertex 262.889912989575 -1405.91973511085 -20.9999999999975
   endloop
endfacet
facet normal -0.494750208868502 -0.869035229909912 -2.73906736029019e-014
   outer loop
      vertex 262.889912989575 -1405.91973511085 -17.9999999999975
      vertex 263.252584598965 -1406.06739378971 -20.9999999999975
      vertex 263.252584598965 -1406.06739378971 -17.9999999999975
   endloop
endfacet
facet normal 0.965925826289066 0.258819045102528 5.34761957817164e-014
   outer loop
      vertex 324.561570546228 -1407.75917520223 -20.9999999999941
      vertex 324.510459285662 -1407.37094663457 -17.9999999999941
      vertex 324.561570546228 -1407.75917520223 -17.9999999999941
   endloop
endfacet
facet normal 0.965925826289066 0.258819045102528 5.34761957817164e-014
   outer loop
      vertex 324.510459285662 -1407.37094663457 -17.9999999999941
      vertex 324.561570546228 -1407.75917520223 -20.9999999999941
      vertex 324.510459285662 -1407.37094663457 -20.9999999999941
   endloop
endfacet
facet normal 0.967474349148663 -0.252969135942256 5.35619260824895e-014
   outer loop
      vertex 261.059247761939 -1406.99149293066 -20.9999999999976
      vertex 261.206906440797 -1406.62882132127 -17.9999999999976
      vertex 261.059247761939 -1406.99149293066 -17.9999999999976
   endloop
endfacet
facet normal 0.967474349148663 -0.252969135942256 5.35619260824895e-014
   outer loop
      vertex 261.206906440797 -1406.62882132127 -17.9999999999976
      vertex 261.059247761939 -1406.99149293066 -20.9999999999976
      vertex 261.206906440797 -1406.62882132127 -20.9999999999976
   endloop
endfacet
facet normal -1.0 0.0 -5.53626317117573e-014
   outer loop
      vertex 337.010459285662 -1395.87094663457 -17.9999999999936
      vertex 337.01045928566 -1415.87094663457 14.0000000000064
      vertex 337.01045928566 -1395.87094663457 14.0000000000064
   endloop
endfacet
facet normal -1.0 0.0 -5.53626317117573e-014
   outer loop
      vertex 337.01045928566 -1415.87094663457 14.0000000000064
      vertex 337.010459285662 -1395.87094663457 -17.9999999999936
      vertex 337.010459285662 -1415.87094663457 -17.9999999999937
   endloop
endfacet
facet normal -5.37512222931585e-014 -1.1279865930192e-015 1.0
   outer loop
      vertex 337.010459285662 -1395.87094663457 -17.9999999999936
      vertex 323.010459285662 -1415.87094663457 -17.9999999999944
      vertex 337.010459285662 -1415.87094663457 -17.9999999999937
   endloop
endfacet
facet normal -5.37512222931585e-014 -1.1279865930192e-015 1.0
   outer loop
      vertex 323.010459285662 -1415.87094663457 -17.9999999999944
      vertex 337.010459285662 -1395.87094663457 -17.9999999999936
      vertex 327.071119457442 -1408.43160680635 -17.999999999994
   endloop
endfacet
facet normal -5.37512222931585e-014 -1.1279865930192e-015 1.0
   outer loop
      vertex 323.010459285662 -1415.87094663457 -17.9999999999944
      vertex 327.071119457442 -1408.43160680635 -17.999999999994
      vertex 326.760459285662 -1408.66998474025 -17.999999999994
   endloop
endfacet
facet normal -5.37512222931585e-014 -1.1279865930192e-015 1.0
   outer loop
      vertex 323.010459285662 -1415.87094663457 -17.9999999999944
      vertex 326.760459285662 -1408.66998474025 -17.999999999994
      vertex 326.398687853315 -1408.81983537401 -17.999999999994
   endloop
endfacet
facet normal -5.37512222931585e-014 -1.1279865930192e-015 1.0
   outer loop
      vertex 323.010459285662 -1415.87094663457 -17.9999999999944
      vertex 326.398687853315 -1408.81983537401 -17.999999999994
      vertex 326.010459285662 -1408.87094663457 -17.999999999994
   endloop
endfacet
facet normal -5.37512222931585e-014 -1.1279865930192e-015 1.0
   outer loop
      vertex 327.071119457442 -1408.43160680635 -17.999999999994
      vertex 337.010459285662 -1395.87094663457 -17.9999999999936
      vertex 327.309497391338 -1408.12094663457 -17.999999999994
   endloop
endfacet
facet normal -5.37512222931585e-014 -1.1279865930192e-015 1.0
   outer loop
      vertex 327.309497391338 -1408.12094663457 -17.999999999994
      vertex 337.010459285662 -1395.87094663457 -17.9999999999936
      vertex 327.459348025095 -1407.75917520223 -17.999999999994
   endloop
endfacet
facet normal -5.37512222931585e-014 -1.1279865930192e-015 1.0
   outer loop
      vertex 327.459348025095 -1407.75917520223 -17.999999999994
      vertex 337.010459285662 -1395.87094663457 -17.9999999999936
      vertex 327.510459285662 -1407.37094663457 -17.999999999994
   endloop
endfacet
facet normal -5.37512222931585e-014 -1.1279865930192e-015 1.0
   outer loop
      vertex 327.510459285662 -1407.37094663457 -17.999999999994
      vertex 337.010459285662 -1395.87094663457 -17.9999999999936
      vertex 327.459348025095 -1406.98271806692 -17.999999999994
   endloop
endfacet
facet normal -5.37512222931585e-014 -1.1279865930192e-015 1.0
   outer loop
      vertex 327.459348025095 -1406.98271806692 -17.999999999994
      vertex 337.010459285662 -1395.87094663457 -17.9999999999936
      vertex 327.309497391338 -1406.62094663457 -17.999999999994
   endloop
endfacet
facet normal -5.37512222931585e-014 -1.1279865930192e-015 1.0
   outer loop
      vertex 327.309497391338 -1406.62094663457 -17.999999999994
      vertex 337.010459285662 -1395.87094663457 -17.9999999999936
      vertex 327.071119457442 -1406.31028646279 -17.999999999994
   endloop
endfacet
facet normal -5.37512222931585e-014 -1.1279865930192e-015 1.0
   outer loop
      vertex 327.071119457442 -1406.31028646279 -17.999999999994
      vertex 337.010459285662 -1395.87094663457 -17.9999999999936
      vertex 326.760459285662 -1406.0719085289 -17.999999999994
   endloop
endfacet
facet normal -5.37512222931585e-014 -1.1279865930192e-015 1.0
   outer loop
      vertex 326.760459285662 -1406.0719085289 -17.999999999994
      vertex 337.010459285662 -1395.87094663457 -17.9999999999936
      vertex 326.398687853315 -1405.92205789514 -17.999999999994
   endloop
endfacet
facet normal -5.37512222931585e-014 -1.1279865930192e-015 1.0
   outer loop
      vertex 326.398687853315 -1405.92205789514 -17.999999999994
      vertex 337.010459285662 -1395.87094663457 -17.9999999999936
      vertex 326.010459285662 -1405.87094663457 -17.999999999994
   endloop
endfacet
facet normal -5.37512222931585e-014 -1.1279865930192e-015 1.0
   outer loop
      vertex 323.010459285662 -1415.87094663457 -17.9999999999944
      vertex 324.510459285662 -1407.37094663457 -17.9999999999941
      vertex 323.010459285662 -1395.87094663457 -17.9999999999944
   endloop
endfacet
facet normal -5.37512222931585e-014 -1.1279865930192e-015 1.0
   outer loop
      vertex 324.510459285662 -1407.37094663457 -17.9999999999941
      vertex 323.010459285662 -1415.87094663457 -17.9999999999944
      vertex 324.561570546228 -1407.75917520223 -17.9999999999941
   endloop
endfacet
facet normal -5.37512222931585e-014 -1.1279865930192e-015 1.0
   outer loop
      vertex 324.561570546228 -1407.75917520223 -17.9999999999941
      vertex 323.010459285662 -1415.87094663457 -17.9999999999944
      vertex 324.711421179985 -1408.12094663457 -17.9999999999941
   endloop
endfacet
facet normal -5.37512222931585e-014 -1.1279865930192e-015 1.0
   outer loop
      vertex 324.711421179985 -1408.12094663457 -17.9999999999941
      vertex 323.010459285662 -1415.87094663457 -17.9999999999944
      vertex 324.949799113882 -1408.43160680635 -17.9999999999941
   endloop
endfacet
facet normal -5.37512222931585e-014 -1.1279865930192e-015 1.0
   outer loop
      vertex 324.949799113882 -1408.43160680635 -17.9999999999941
      vertex 323.010459285662 -1415.87094663457 -17.9999999999944
      vertex 325.260459285662 -1408.66998474025 -17.9999999999941
   endloop
endfacet
facet normal -5.37512222931585e-014 -1.1279865930192e-015 1.0
   outer loop
      vertex 325.260459285662 -1408.66998474025 -17.9999999999941
      vertex 323.010459285662 -1415.87094663457 -17.9999999999944
      vertex 325.622230718008 -1408.81983537401 -17.9999999999941
   endloop
endfacet
facet normal -5.37512222931585e-014 -1.1279865930192e-015 1.0
   outer loop
      vertex 325.622230718008 -1408.81983537401 -17.9999999999941
      vertex 323.010459285662 -1415.87094663457 -17.9999999999944
      vertex 326.010459285662 -1408.87094663457 -17.999999999994
   endloop
endfacet
facet normal -5.37512222931585e-014 -1.1279865930192e-015 1.0
   outer loop
      vertex 323.010459285662 -1395.87094663457 -17.9999999999944
      vertex 324.510459285662 -1407.37094663457 -17.9999999999941
      vertex 324.561570546228 -1406.98271806692 -17.9999999999941
   endloop
endfacet
facet normal -5.37512222931585e-014 -1.1279865930192e-015 1.0
   outer loop
      vertex 323.010459285662 -1395.87094663457 -17.9999999999944
      vertex 324.561570546228 -1406.98271806692 -17.9999999999941
      vertex 324.711421179985 -1406.62094663457 -17.9999999999941
   endloop
endfacet
facet normal -5.37512222931585e-014 -1.1279865930192e-015 1.0
   outer loop
      vertex 323.010459285662 -1395.87094663457 -17.9999999999944
      vertex 324.711421179985 -1406.62094663457 -17.9999999999941
      vertex 324.949799113882 -1406.31028646279 -17.9999999999941
   endloop
endfacet
facet normal -5.37512222931585e-014 -1.1279865930192e-015 1.0
   outer loop
      vertex 323.010459285662 -1395.87094663457 -17.9999999999944
      vertex 324.949799113882 -1406.31028646279 -17.9999999999941
      vertex 325.260459285662 -1406.0719085289 -17.9999999999941
   endloop
endfacet
facet normal -5.37512222931585e-014 -1.1279865930192e-015 1.0
   outer loop
      vertex 323.010459285662 -1395.87094663457 -17.9999999999944
      vertex 325.260459285662 -1406.0719085289 -17.9999999999941
      vertex 325.622230718008 -1405.92205789514 -17.9999999999941
   endloop
endfacet
facet normal -5.37512222931585e-014 -1.1279865930192e-015 1.0
   outer loop
      vertex 323.010459285662 -1395.87094663457 -17.9999999999944
      vertex 325.622230718008 -1405.92205789514 -17.9999999999941
      vertex 326.010459285662 -1405.87094663457 -17.999999999994
   endloop
endfacet
facet normal -5.37512222931585e-014 -1.1279865930192e-015 1.0
   outer loop
      vertex 323.010459285662 -1395.87094663457 -17.9999999999944
      vertex 326.010459285662 -1405.87094663457 -17.999999999994
      vertex 337.010459285662 -1395.87094663457 -17.9999999999936
   endloop
endfacet
facet normal 0.869035229909886 -0.494750208868547 4.81120773780434e-014
   outer loop
      vertex 261.206906440797 -1406.62882132127 -20.9999999999976
      vertex 261.44340009181 -1406.31672432556 -17.9999999999976
      vertex 261.206906440797 -1406.62882132127 -17.9999999999976
   endloop
endfacet
facet normal 0.869035229909886 -0.494750208868547 4.81120773780434e-014
   outer loop
      vertex 261.44340009181 -1406.31672432556 -17.9999999999976
      vertex 261.206906440797 -1406.62882132127 -20.9999999999976
      vertex 261.44340009181 -1406.31672432556 -20.9999999999976
   endloop
endfacet
facet normal -0.866025403784425 -0.500000000000023 -4.79454454827431e-014
   outer loop
      vertex 327.309497391339 -1406.62094663457 -20.999999999994
      vertex 327.459348025095 -1406.98271806692 -17.999999999994
      vertex 327.309497391338 -1406.62094663457 -17.999999999994
   endloop
endfacet
facet normal -0.866025403784425 -0.500000000000023 -4.79454454827431e-014
   outer loop
      vertex 327.459348025095 -1406.98271806692 -17.999999999994
      vertex 327.309497391339 -1406.62094663457 -20.999999999994
      vertex 327.459348025095 -1406.98271806692 -20.999999999994
   endloop
endfacet
facet normal -0.264659476475006 0.964341931843667 -1.46522451251123e-014
   outer loop
      vertex 262.907448500374 -1408.81745953234 -17.9999999999975
      vertex 262.519536333983 -1408.87091917005 -20.9999999999975
      vertex 262.519536333983 -1408.87091917005 -17.9999999999975
   endloop
endfacet
facet normal -0.264659476475006 0.964341931843667 -1.46522451251123e-014
   outer loop
      vertex 262.519536333983 -1408.87091917005 -20.9999999999975
      vertex 262.907448500374 -1408.81745953234 -17.9999999999975
      vertex 262.907448500374 -1408.81745953234 -20.9999999999975
   endloop
endfacet
facet normal -3.2967997944675e-016 -1.0 -2.99269330306578e-015
   outer loop
      vertex 323.010459285662 -1395.87094663457 -20.9999999999944
      vertex 265.010459285662 -1395.87094663457 -17.9999999999976
      vertex 265.010459285662 -1395.87094663457 -20.9999999999976
   endloop
endfacet
facet normal -3.2967997944675e-016 -1.0 -2.99269330306578e-015
   outer loop
      vertex 265.010459285662 -1395.87094663457 -17.9999999999976
      vertex 257.01045928566 -1395.87094663457 14.000000000002
      vertex 257.010459285662 -1395.87094663457 -17.999999999998
   endloop
endfacet
facet normal -3.2967997944675e-016 -1.0 -2.99269330306578e-015
   outer loop
      vertex 257.01045928566 -1395.87094663457 14.000000000002
      vertex 265.010459285662 -1395.87094663457 -17.9999999999976
      vertex 337.01045928566 -1395.87094663457 14.0000000000064
   endloop
endfacet
facet normal -3.2967997944675e-016 -1.0 -2.99269330306578e-015
   outer loop
      vertex 337.01045928566 -1395.87094663457 14.0000000000064
      vertex 265.010459285662 -1395.87094663457 -17.9999999999976
      vertex 323.010459285662 -1395.87094663457 -17.9999999999944
   endloop
endfacet
facet normal -3.2967997944675e-016 -1.0 -2.99269330306578e-015
   outer loop
      vertex 323.010459285662 -1395.87094663457 -17.9999999999944
      vertex 265.010459285662 -1395.87094663457 -17.9999999999976
      vertex 323.010459285662 -1395.87094663457 -20.9999999999944
   endloop
endfacet
facet normal -3.2967997944675e-016 -1.0 -2.99269330306578e-015
   outer loop
      vertex 337.01045928566 -1395.87094663457 14.0000000000064
      vertex 323.010459285662 -1395.87094663457 -17.9999999999944
      vertex 337.010459285662 -1395.87094663457 -17.9999999999936
   endloop
endfacet
facet normal -0.999981690319885 -0.00605136554716823 -5.53616180396803e-014
   outer loop
      vertex 264.010431821142 -1407.36186958625 -20.9999999999975
      vertex 263.961670809385 -1407.75040033849 -17.9999999999975
      vertex 264.010431821142 -1407.36186958625 -17.9999999999975
   endloop
endfacet
facet normal -0.999981690319885 -0.00605136554716823 -5.53616180396803e-014
   outer loop
      vertex 263.961670809385 -1407.75040033849 -17.9999999999975
      vertex 264.010431821142 -1407.36186958625 -20.9999999999975
      vertex 263.961670809385 -1407.75040033849 -20.9999999999975
   endloop
endfacet
facet normal -0.258819045102528 -0.965925826289066 -1.4328903474e-014
   outer loop
      vertex 326.398687853316 -1405.92205789514 -20.999999999994
      vertex 326.010459285662 -1405.87094663457 -17.999999999994
      vertex 326.010459285662 -1405.87094663457 -20.999999999994
   endloop
endfacet
facet normal -0.258819045102528 -0.965925826289066 -1.4328903474e-014
   outer loop
      vertex 326.010459285662 -1405.87094663457 -17.999999999994
      vertex 326.398687853316 -1405.92205789514 -20.999999999994
      vertex 326.398687853315 -1405.92205789514 -17.999999999994
   endloop
endfacet
facet normal -0.500000000000012 0.866025403784432 -2.76813158558793e-014
   outer loop
      vertex 326.760459285662 -1408.66998474025 -17.999999999994
      vertex 326.398687853316 -1408.81983537401 -20.999999999994
      vertex 326.398687853315 -1408.81983537401 -17.999999999994
   endloop
endfacet
facet normal -0.500000000000012 0.866025403784432 -2.76813158558793e-014
   outer loop
      vertex 326.398687853316 -1408.81983537401 -20.999999999994
      vertex 326.760459285662 -1408.66998474025 -17.999999999994
      vertex 326.760459285662 -1408.66998474025 -20.999999999994
   endloop
endfacet
facet normal 0.707106781186561 0.707106781186534 3.91472923077177e-014
   outer loop
      vertex 324.949799113882 -1408.43160680635 -20.9999999999941
      vertex 324.711421179985 -1408.12094663457 -17.9999999999941
      vertex 324.949799113882 -1408.43160680635 -17.9999999999941
   endloop
endfacet
facet normal 0.707106781186561 0.707106781186534 3.91472923077177e-014
   outer loop
      vertex 324.711421179985 -1408.12094663457 -17.9999999999941
      vertex 324.949799113882 -1408.43160680635 -20.9999999999941
      vertex 324.711421179985 -1408.12094663457 -20.9999999999941
   endloop
endfacet
facet normal 0.999981690319885 0.00605136554716822 5.53616180396803e-014
   outer loop
      vertex 261.010486750182 -1407.38002368289 -20.9999999999976
      vertex 261.059247761939 -1406.99149293066 -17.9999999999976
      vertex 261.010486750182 -1407.38002368289 -17.9999999999976
   endloop
endfacet
facet normal 0.999981690319885 0.00605136554716822 5.53616180396803e-014
   outer loop
      vertex 261.059247761939 -1406.99149293066 -17.9999999999976
      vertex 261.010486750182 -1407.38002368289 -20.9999999999976
      vertex 261.059247761939 -1406.99149293066 -20.9999999999976
   endloop
endfacet
facet normal 0.264659476475007 -0.964341931843667 1.46522451251123e-014
   outer loop
      vertex 262.11347007095 -1405.92443373681 -20.9999999999976
      vertex 261.752612063485 -1406.07647083803 -17.9999999999976
      vertex 261.752612063485 -1406.07647083803 -20.9999999999976
   endloop
endfacet
facet normal 0.264659476475007 -0.964341931843667 1.46522451251123e-014
   outer loop
      vertex 261.752612063485 -1406.07647083803 -17.9999999999976
      vertex 262.11347007095 -1405.92443373681 -20.9999999999976
      vertex 262.113470070949 -1405.92443373681 -17.9999999999976
   endloop
endfacet
facet normal 0.702814872673747 0.711372795901407 3.89096809573822e-014
   outer loop
      vertex 261.456236976651 -1408.43800582843 -20.9999999999976
      vertex 261.215983489118 -1408.12879385675 -17.9999999999976
      vertex 261.456236976651 -1408.43800582843 -17.9999999999976
   endloop
endfacet
facet normal 0.702814872673747 0.711372795901407 3.89096809573822e-014
   outer loop
      vertex 261.215983489118 -1408.12879385675 -17.9999999999976
      vertex 261.456236976651 -1408.43800582843 -20.9999999999976
      vertex 261.215983489118 -1408.12879385675 -20.9999999999976
   endloop
endfacet
facet normal 0.0 -1.0 0.0
   outer loop
      vertex 265.010459285662 -1416.37094663457 -20.9999999999976
      vertex 257.010459285662 -1416.37094663457 -17.999999999998
      vertex 257.010459285662 -1416.37094663457 -20.999999999998
   endloop
endfacet
facet normal 0.0 -1.0 0.0
   outer loop
      vertex 257.010459285662 -1416.37094663457 -17.999999999998
      vertex 265.010459285662 -1416.37094663457 -20.9999999999976
      vertex 265.010459285662 -1416.37094663457 -17.9999999999976
   endloop
endfacet
facet normal -0.964341931843691 -0.26465947647492 -5.33885072168668e-014
   outer loop
      vertex 263.956972183427 -1406.97395741986 -20.9999999999975
      vertex 264.010431821142 -1407.36186958625 -17.9999999999975
      vertex 263.956972183427 -1406.97395741986 -17.9999999999975
   endloop
endfacet
facet normal -0.964341931843691 -0.26465947647492 -5.33885072168668e-014
   outer loop
      vertex 264.010431821142 -1407.36186958625 -17.9999999999975
      vertex 263.956972183427 -1406.97395741986 -20.9999999999975
      vertex 264.010431821142 -1407.36186958625 -20.9999999999975
   endloop
endfacet
facet normal 0.866025403784425 -0.500000000000023 4.79454454827431e-014
   outer loop
      vertex 324.711421179985 -1406.62094663457 -20.9999999999941
      vertex 324.949799113882 -1406.31028646279 -17.9999999999941
      vertex 324.711421179985 -1406.62094663457 -17.9999999999941
   endloop
endfacet
facet normal 0.866025403784425 -0.500000000000023 4.79454454827431e-014
   outer loop
      vertex 324.949799113882 -1406.31028646279 -17.9999999999941
      vertex 324.711421179985 -1406.62094663457 -20.9999999999941
      vertex 324.949799113882 -1406.31028646279 -20.9999999999941
   endloop
endfacet
facet normal -0.869035229909886 0.494750208868548 -4.81120773780433e-014
   outer loop
      vertex 263.814012130527 -1408.11307194788 -20.9999999999975
      vertex 263.577518479514 -1408.42516894358 -17.9999999999975
      vertex 263.814012130527 -1408.11307194788 -17.9999999999975
   endloop
endfacet
facet normal -0.869035229909886 0.494750208868548 -4.81120773780433e-014
   outer loop
      vertex 263.577518479514 -1408.42516894358 -17.9999999999975
      vertex 263.814012130527 -1408.11307194788 -20.9999999999975
      vertex 263.577518479514 -1408.42516894358 -20.9999999999975
   endloop
endfacet
facet normal -0.505231481451377 0.862983864362739 -2.79709444367781e-014
   outer loop
      vertex 263.268306507839 -1408.66542243112 -17.9999999999975
      vertex 262.907448500374 -1408.81745953234 -20.9999999999975
      vertex 262.907448500374 -1408.81745953234 -17.9999999999975
   endloop
endfacet
facet normal -0.505231481451377 0.862983864362739 -2.79709444367781e-014
   outer loop
      vertex 262.907448500374 -1408.81745953234 -20.9999999999975
      vertex 263.268306507839 -1408.66542243112 -17.9999999999975
      vertex 263.268306507839 -1408.66542243112 -20.9999999999975
   endloop
endfacet
facet normal -0.711372795901368 0.702814872673787 -3.93834701092505e-014
   outer loop
      vertex 263.577518479514 -1408.42516894358 -17.9999999999975
      vertex 263.268306507839 -1408.66542243112 -20.9999999999975
      vertex 263.268306507839 -1408.66542243112 -17.9999999999975
   endloop
endfacet
facet normal -0.711372795901368 0.702814872673787 -3.93834701092505e-014
   outer loop
      vertex 263.268306507839 -1408.66542243112 -20.9999999999975
      vertex 263.577518479514 -1408.42516894358 -17.9999999999975
      vertex 263.577518479514 -1408.42516894358 -20.9999999999975
   endloop
endfacet
facet normal 1.0 0.0 5.53626317117573e-014
   outer loop
      vertex 324.510459285662 -1407.37094663457 -20.9999999999941
      vertex 324.561570546228 -1406.98271806692 -17.9999999999941
      vertex 324.510459285662 -1407.37094663457 -17.9999999999941
   endloop
endfacet
facet normal 1.0 0.0 5.53626317117573e-014
   outer loop
      vertex 324.561570546228 -1406.98271806692 -17.9999999999941
      vertex 324.510459285662 -1407.37094663457 -20.9999999999941
      vertex 324.561570546228 -1406.98271806692 -20.9999999999941
   endloop
endfacet
facet normal 0.866025403784425 0.500000000000023 4.79454454827431e-014
   outer loop
      vertex 324.711421179985 -1408.12094663457 -20.9999999999941
      vertex 324.561570546228 -1407.75917520223 -17.9999999999941
      vertex 324.711421179985 -1408.12094663457 -17.9999999999941
   endloop
endfacet
facet normal 0.866025403784425 0.500000000000023 4.79454454827431e-014
   outer loop
      vertex 324.561570546228 -1407.75917520223 -17.9999999999941
      vertex 324.711421179985 -1408.12094663457 -20.9999999999941
      vertex 324.561570546228 -1407.75917520223 -20.9999999999941
   endloop
endfacet
facet normal 0.500000000000012 -0.866025403784432 2.76813158558793e-014
   outer loop
      vertex 325.260459285662 -1406.0719085289 -20.9999999999941
      vertex 324.949799113882 -1406.31028646279 -17.9999999999941
      vertex 324.949799113882 -1406.31028646279 -20.9999999999941
   endloop
endfacet
facet normal 0.500000000000012 -0.866025403784432 2.76813158558793e-014
   outer loop
      vertex 324.949799113882 -1406.31028646279 -17.9999999999941
      vertex 325.260459285662 -1406.0719085289 -20.9999999999941
      vertex 325.260459285662 -1406.0719085289 -17.9999999999941
   endloop
endfacet
facet normal 3.18229642644685e-016 1.0 -1.23343734741621e-015
   outer loop
      vertex 357.51045928566 -1393.37094663457 14.0000000000076
      vertex 257.010459285662 -1393.37094663457 -20.999999999998
      vertex 257.01045928566 -1393.37094663457 14.000000000002
   endloop
endfacet
facet normal 3.18229642644685e-016 1.0 -1.23343734741621e-015
   outer loop
      vertex 257.010459285662 -1393.37094663457 -20.999999999998
      vertex 357.51045928566 -1393.37094663457 14.0000000000076
      vertex 357.510459285662 -1393.37094663457 -20.9999999999925
   endloop
endfacet
facet normal -5.53294710918943e-014 -1.66811470165664e-016 1.0
   outer loop
      vertex 357.51045928566 -1393.37094663457 14.0000000000076
      vertex 339.51045928566 -1395.87094663457 14.0000000000066
      vertex 357.51045928566 -1395.87094663457 14.0000000000076
   endloop
endfacet
facet normal -5.53294710918943e-014 -1.66811470165664e-016 1.0
   outer loop
      vertex 339.51045928566 -1395.87094663457 14.0000000000066
      vertex 357.51045928566 -1393.37094663457 14.0000000000076
      vertex 257.01045928566 -1395.87094663457 14.000000000002
   endloop
endfacet
facet normal -5.53294710918943e-014 -1.66811470165664e-016 1.0
   outer loop
      vertex 257.01045928566 -1395.87094663457 14.000000000002
      vertex 357.51045928566 -1393.37094663457 14.0000000000076
      vertex 257.01045928566 -1393.37094663457 14.000000000002
   endloop
endfacet
facet normal -5.53294710918943e-014 -1.66811470165664e-016 1.0
   outer loop
      vertex 339.51045928566 -1395.87094663457 14.0000000000066
      vertex 337.01045928566 -1415.87094663457 14.0000000000064
      vertex 339.51045928566 -1415.87094663457 14.0000000000066
   endloop
endfacet
facet normal -5.53294710918943e-014 -1.66811470165664e-016 1.0
   outer loop
      vertex 337.01045928566 -1415.87094663457 14.0000000000064
      vertex 339.51045928566 -1395.87094663457 14.0000000000066
      vertex 337.01045928566 -1395.87094663457 14.0000000000064
   endloop
endfacet
facet normal -5.53294710918943e-014 -1.66811470165664e-016 1.0
   outer loop
      vertex 337.01045928566 -1395.87094663457 14.0000000000064
      vertex 339.51045928566 -1395.87094663457 14.0000000000066
      vertex 257.01045928566 -1395.87094663457 14.000000000002
   endloop
endfacet
endsolid tee_fold_Max_Build_Plate
